<svg width="512" height="512" viewBox="0 0 512 512" fill="none" xmlns="http://www.w3.org/2000/svg">
  <!-- Background circle -->
  <circle cx="256" cy="256" r="256" fill="url(#gradient)" />
  
  <!-- Card deck representation -->
  <g transform="translate(128, 128)">
    <!-- Back card (slightly offset) -->
    <rect x="20" y="20" width="200" height="280" rx="20" fill="#1e293b" stroke="#475569" stroke-width="3"/>
    <rect x="40" y="40" width="160" height="240" rx="10" fill="#334155"/>
    
    <!-- Pattern on back card -->
    <circle cx="120" cy="160" r="60" fill="none" stroke="#10b981" stroke-width="4" opacity="0.6"/>
    <circle cx="120" cy="160" r="40" fill="none" stroke="#10b981" stroke-width="3" opacity="0.8"/>
    <circle cx="120" cy="160" r="20" fill="#10b981" opacity="0.4"/>
    
    <!-- Front card -->
    <rect x="36" y="36" width="200" height="280" rx="20" fill="#f8fafc" stroke="#e2e8f0" stroke-width="3"/>
    
    <!-- Card content -->
    <!-- Spade symbol -->
    <path d="M136 80 C136 80 116 100 116 120 C116 135 125 145 136 145 C147 145 156 135 156 120 C156 100 136 80 136 80 Z" fill="#1e293b"/>
    <rect x="133" y="140" width="6" height="15" fill="#1e293b"/>
    <ellipse cx="136" cy="158" rx="8" ry="4" fill="#1e293b"/>
    
    <!-- Number/Letter -->
    <text x="60" y="110" font-family="serif" font-size="32" font-weight="bold" fill="#1e293b">A</text>
    <text x="200" y="290" font-family="serif" font-size="32" font-weight="bold" fill="#1e293b" transform="rotate(180 200 290)">A</text>
    
    <!-- Small suit symbols -->
    <path d="M65 125 C65 125 60 130 60 135 C60 140 62 142 65 142 C68 142 70 140 70 135 C70 130 65 125 65 125 Z" fill="#1e293b"/>
    <rect x="64" y="140" width="2" height="4" fill="#1e293b"/>
    
    <path d="M207 270 C207 270 202 275 202 280 C202 285 204 287 207 287 C210 287 212 285 212 280 C212 275 207 270 207 270 Z" fill="#1e293b" transform="rotate(180 207 278)"/>
    <rect x="206" y="275" width="2" height="4" fill="#1e293b" transform="rotate(180 207 277)"/>
  </g>
  
  <!-- Gradient definition -->
  <defs>
    <linearGradient id="gradient" x1="0%" y1="0%" x2="100%" y2="100%">
      <stop offset="0%" style="stop-color:#10b981;stop-opacity:1" />
      <stop offset="100%" style="stop-color:#059669;stop-opacity:1" />
    </linearGradient>
  </defs>
</svg>