<?xml version="1.0" encoding="UTF-8"?>
<svg version="1.1" xmlns="http://www.w3.org/2000/svg" width="750" height="500">
<path d="M0 0 C247.5 0 495 0 750 0 C750 165 750 330 750 500 C502.5 500 255 500 0 500 C0 335 0 170 0 0 Z " fill="#FEFEFE" transform="translate(0,0)"/>
<path d="M0 0 C1.18291637 -0.00913666 1.18291637 -0.00913666 2.38973004 -0.01845789 C5.01119558 -0.03500089 7.63217075 -0.03032468 10.25367737 -0.0255127 C12.14171347 -0.03285802 14.02974508 -0.04144559 15.91777039 -0.05117798 C21.03141417 -0.07335208 26.14489662 -0.07632677 31.25858188 -0.07443047 C35.53291404 -0.07431059 39.80721223 -0.08288144 44.08153492 -0.09120798 C54.16742197 -0.11042668 64.25322625 -0.11333119 74.33912659 -0.10656738 C84.73320193 -0.09992507 95.12692254 -0.12280225 105.52092594 -0.15988111 C114.45620656 -0.19059597 123.39137317 -0.20193627 132.32670552 -0.1980443 C137.65845849 -0.19597894 142.98993527 -0.20142355 148.32163811 -0.22593689 C153.33608289 -0.24823133 158.34995132 -0.24630361 163.36439896 -0.22600937 C165.20055783 -0.2226043 167.03675572 -0.22766668 168.87286186 -0.24199295 C187.76658602 -0.37919696 187.76658602 -0.37919696 195.59723568 7.14981842 C203.01617176 14.90552737 203.21536374 22.71627123 203.20387268 33.00964355 C203.21289556 34.40019366 203.22321071 35.79073587 203.23470497 37.18126774 C203.26234808 40.98239447 203.27152581 44.78337219 203.27753472 48.58458638 C203.28718213 52.66439484 203.31391709 56.74409609 203.33843994 60.82383728 C203.38330429 68.75920924 203.41203231 76.69455866 203.43444246 84.63002282 C203.45271911 91.0497276 203.47603884 97.46939458 203.50300598 103.8890686 C203.50872474 105.25587931 203.50872474 105.25587931 203.51455903 106.65030235 C203.52229397 108.49720457 203.53003504 110.34410676 203.53778219 112.19100893 C203.58850133 124.39848176 203.6340569 136.60596054 203.66810608 148.81349182 C203.67072614 149.75237218 203.6733462 150.69125254 203.67604566 151.65858382 C203.68131003 153.55138937 203.68657153 155.44419492 203.69183016 157.33700049 C203.73904946 174.2771172 203.81398033 191.2168102 203.91663074 208.15667915 C203.99287287 220.79082891 204.0518359 233.42497142 204.09492016 246.05927849 C204.12036512 253.40222995 204.15341133 260.74496118 204.20664978 268.08776855 C204.25616249 274.93600215 204.27969506 281.78390241 204.28551674 288.63231087 C204.29169348 291.11696127 204.30639608 293.60160831 204.33052635 296.08614922 C204.57596967 322.38181375 204.57596967 322.38181375 197.02867126 331.49998474 C188.41826948 339.88790757 178.39233338 341.00681044 166.84571838 340.96081543 C164.88708611 340.9701133 164.88708611 340.9701133 162.8888855 340.979599 C160.14474118 340.98993176 157.40111789 340.98553978 154.65699768 340.9708252 C151.14843714 340.95354568 147.64150045 340.97727853 144.13312054 341.0123148 C140.76639021 341.03957429 137.40005394 341.02955743 134.03321838 341.02331543 C132.7779686 341.03657364 131.52271881 341.04983185 130.22943115 341.06349182 C120.57763269 340.95997646 120.57763269 340.95997646 117.48170471 338.07775879 C115.2154049 334.52188424 115.01937798 332.53107826 115.77149963 328.39440918 C118.31682502 325.83306544 119.99692817 324.53202368 123.57899475 323.89561462 C125.11191162 323.89586388 125.11191162 323.89586388 126.67579651 323.89611816 C127.84050476 323.88608261 129.00521301 323.87604706 130.20521545 323.8657074 C131.45427673 323.87388992 132.70333801 323.88207245 133.99024963 323.89050293 C135.96214278 323.87610871 137.93403597 323.86169866 139.90592194 323.84635258 C142.66181973 323.82942554 145.41759712 323.82992899 148.17353821 323.83105469 C152.99637685 323.83301901 157.81901683 323.82608376 162.64173889 323.79115295 C165.20703309 323.77432869 167.77246563 323.77151654 170.33778381 323.78416443 C172.08484619 323.77383934 172.08484619 323.77383934 173.86720276 323.76330566 C174.88914734 323.76426743 175.91109192 323.76522919 176.96400452 323.76622009 C180.2614855 323.32951785 182.10691529 322.3603169 184.77149963 320.39440918 C186.94745039 317.13048304 187.02229554 316.22282497 187.02597523 312.4477253 C187.03180742 311.42071735 187.03763961 310.39370939 187.04364854 309.33557999 C187.03986922 308.20379032 187.03608989 307.07200064 187.03219604 305.90591431 C187.03602159 304.70631447 187.03984714 303.50671463 187.04378861 302.27076328 C187.05234206 298.93505648 187.05187733 295.59956929 187.04760802 292.26386857 C187.04514755 288.66868815 187.05414652 285.07353395 187.06164551 281.47836304 C187.07441385 274.43250666 187.07618352 267.38668835 187.07384524 260.34082235 C187.07206418 254.61486393 187.07380718 248.88891709 187.07806969 243.16296005 C187.07896247 241.94180087 187.07896247 241.94180087 187.07987329 240.69597181 C187.08108501 239.04224707 187.08229914 237.38852232 187.08351567 235.73479758 C187.09439959 220.21557386 187.09222478 204.69637185 187.08613082 189.1771469 C187.08096181 174.97372944 187.09221515 160.77038057 187.11122904 146.56697668 C187.13059265 131.9908211 187.13886598 117.414698 187.13510579 102.83852947 C187.13319138 94.65198503 187.13570451 86.46549896 187.14982033 78.278965 C187.16171637 71.30909827 187.16315912 64.33932584 187.15103016 57.36945786 C187.14512869 53.81238822 187.14407675 50.25549121 187.15603256 46.69843292 C187.16883581 42.84449286 187.15845686 38.99081627 187.14572144 35.13687134 C187.15309572 34.00954311 187.16047001 32.88221487 187.16806775 31.72072518 C187.16086121 30.68850173 187.15365467 29.65627829 187.14622974 28.59277534 C187.14631227 27.25840925 187.14631227 27.25840925 187.14639646 25.89708626 C186.59154755 22.19311344 185.05687043 19.36274776 182.05091763 17.09820271 C178.80800969 16.09692184 175.66109325 16.11569312 172.30081177 16.13371277 C171.54546471 16.12988722 170.79011765 16.12606167 170.01188129 16.1221202 C167.47929083 16.11179635 164.94692734 16.11578115 162.4143219 16.11975098 C160.59920542 16.11540417 158.78409078 16.11022112 156.96897888 16.10426331 C152.03719849 16.09085892 147.10549467 16.09029622 142.17369962 16.0928266 C138.05826033 16.09389531 133.94283659 16.08901554 129.82740062 16.08422118 C120.11954617 16.07312108 110.41173041 16.07269147 100.70387268 16.07873535 C90.68479324 16.08477702 80.66585416 16.07246036 70.64679867 16.05116528 C62.04797582 16.03356003 53.44919769 16.02754621 44.85035747 16.03080302 C39.71324437 16.03261769 34.5762314 16.02996137 29.4391346 16.01608849 C24.60872606 16.00353222 19.77853665 16.00543337 14.94813156 16.01849937 C13.17480203 16.02086949 11.40145719 16.01811495 9.62814522 16.00987625 C7.20823157 15.99944372 4.78905796 16.00748091 2.36917114 16.02018738 C1.66663839 16.01281309 0.96410565 16.00543881 0.24028403 15.99784106 C-4.07360508 16.04552849 -6.79256583 16.75841042 -10.22850037 19.39440918 C-11.59132397 22.1200564 -11.35319157 24.2741616 -11.35447693 27.32531738 C-11.36018707 29.19284416 -11.36018707 29.19284416 -11.36601257 31.09809875 C-11.36630337 32.099131 -11.36630337 32.099131 -11.36660004 33.12038612 C-11.370015 35.926109 -11.39137807 38.73160001 -11.4118309 41.53724194 C-11.44984953 46.76171567 -11.48111709 51.98594346 -11.47898865 57.21057129 C-11.47820075 60.84421457 -11.50159797 64.47701139 -11.54087067 68.11043358 C-11.55132212 69.49343241 -11.55286085 70.87652906 -11.54521942 72.25954628 C-11.5355786 74.1981579 -11.55957986 76.13684774 -11.58494568 78.07531738 C-11.58859131 79.17737015 -11.59223694 80.27942291 -11.59599304 81.41487122 C-12.43371604 85.36111403 -14.14113314 86.88529939 -17.22850037 89.39440918 C-21.02330567 90.02687673 -21.95792893 89.57479013 -25.22850037 87.39440918 C-24.90277039 87.99575684 -24.57704041 88.59710449 -24.24143982 89.2166748 C-23.77955261 90.06938965 -23.31766541 90.92210449 -22.84178162 91.80065918 C-22.32245056 92.75939941 -21.80311951 93.71813965 -21.26805115 94.70593262 C-20.09837123 96.86539257 -18.92877745 99.02489917 -17.75926208 101.18444824 C-14.84080555 106.5732059 -11.92137666 111.96142671 -8.99803162 117.34753418 C-2.88830116 128.60834544 3.1860925 139.88751496 9.22895813 151.18432617 C13.5530286 159.26714975 17.89857994 167.33789704 22.27149963 175.39440918 C26.64490784 183.45182135 30.9908985 191.52349229 35.31541443 199.60723877 C47.95921186 223.46338588 47.95921186 223.46338588 61.14649963 247.01940918 C63.59084593 251.24883824 65.86583605 255.51088276 68.02149963 259.89440918 C71.0577807 266.06380032 74.28600297 272.11105802 77.58399963 278.14440918 C78.09591858 279.08091309 78.60783752 280.01741699 79.13526917 280.9822998 C81.63178251 285.53453463 84.14780258 290.07474064 86.69728088 294.59753418 C87.15320618 295.40867676 87.60913147 296.21981934 88.07887268 297.05554199 C88.9309599 298.56804812 89.78759416 300.07800553 90.64967346 301.58483887 C95.39217804 309.99867034 97.63508087 318.26370014 95.11915588 327.89050293 C90.84184833 338.48280532 83.09589183 343.89302302 73.20899963 348.89440918 C71.05339293 350.02075346 68.89844089 351.14835153 66.74415588 352.27722168 C65.71177795 352.81250488 64.67940002 353.34778809 63.61573792 353.89929199 C60.06664066 355.76492904 56.60763919 357.74548912 53.14649963 359.76940918 C48.8370094 362.26164449 44.48834457 364.57159937 40.02149963 366.76940918 C34.931424 369.27537843 29.96325247 371.92138932 25.02149963 374.70690918 C16.1067114 379.7234746 7.06884394 384.49794712 -1.97850037 389.26940918 C-12.448975 394.79344713 -22.89780188 400.34836451 -33.27708435 406.04260254 C-41.59686913 410.60644896 -49.95324578 415.10133922 -58.31443787 419.58874512 C-59.85937927 420.41874023 -59.85937927 420.41874023 -61.43553162 421.26550293 C-62.41989197 421.79385742 -63.40425232 422.32221191 -64.41844177 422.86657715 C-67.7403256 424.67268914 -71.02572949 426.53862128 -74.29759216 428.43371582 C-79.86520979 431.20379742 -86.1727217 431.13885478 -92.22850037 430.39440918 C-106.98747801 425.41547696 -112.17255878 414.2924464 -118.85350037 401.33190918 C-120.0612072 399.01489852 -121.27224685 396.69964941 -122.48338318 394.38442993 C-123.28521709 392.85102403 -124.08600452 391.31707044 -124.88572693 389.78256226 C-128.01461233 383.78168303 -131.21808939 377.82493105 -134.47850037 371.89440918 C-144.02240839 354.49274374 -153.37852516 336.98956308 -162.74281311 319.49078369 C-167.56763924 310.4761116 -172.42394137 301.47905904 -177.30369568 292.49401855 C-180.25124772 287.06155905 -183.18178959 281.62048968 -186.09178162 276.16784668 C-186.41827194 275.55620667 -186.74476227 274.94456665 -187.08114624 274.31439209 C-187.40764664 273.70271179 -187.73414703 273.09103149 -188.07054138 272.46081543 C-188.72734607 271.23033869 -189.38416565 269.99986989 -190.04100037 268.76940918 C-190.36220856 268.16757812 -190.68341675 267.56574707 -191.01435852 266.94567871 C-194.52206338 260.37830785 -198.05052735 253.83245509 -201.79100037 247.39440918 C-203.98624429 243.61241112 -206.05387332 239.82086895 -207.97850037 235.89440918 C-211.19133824 229.34814433 -214.70066079 222.97646934 -218.20750427 216.58483887 C-222.80238073 208.20125373 -227.31495352 199.77506118 -231.81596375 191.34091187 C-236.20891721 183.11327435 -240.65510875 174.92052606 -245.26023865 166.80944824 C-249.42818566 159.41724033 -251.32480599 153.91361746 -250.22850037 145.39440918 C-246.2198477 132.90316115 -236.45161851 128.12625592 -225.41600037 122.39440918 C-224.16759936 121.73726847 -222.91972403 121.07912822 -221.67234802 120.42004395 C-219.1103446 119.06706272 -216.54636469 117.71794513 -213.98094177 116.37145996 C-208.33196398 113.40141247 -202.7187129 110.36516309 -197.10350037 107.33190918 C-194.95517275 106.17415317 -192.80673519 105.01660115 -190.65818787 103.85925293 C-189.06829041 103.0024292 -189.06829041 103.0024292 -187.4462738 102.1282959 C-182.041046 99.21570653 -176.63471469 96.30516688 -171.22850037 93.39440918 C-169.06182847 92.22775222 -166.89516181 91.06108555 -164.72850037 89.89440918 C-151.72850037 82.89440918 -138.72850037 75.89440918 -125.72850037 68.89440918 C-124.65438904 68.31602295 -123.58027771 67.73763672 -122.47361755 67.14172363 C-120.32328973 65.98389214 -118.17289987 64.82617586 -116.02244568 63.6685791 C-110.96077828 60.94368664 -105.899736 58.21765264 -100.84092712 55.48745728 C-99.04449021 54.5180058 -97.24785388 53.54892492 -95.45115662 52.57995605 C-93.19294561 51.36194461 -90.93511225 50.14323264 -88.67771912 48.92370605 C-86.69229473 47.8531833 -84.70437204 46.78727406 -82.71336365 45.72717285 C-80.77823813 44.68926263 -78.86247617 43.61522115 -76.95506287 42.52722168 C-70.87606841 40.00156496 -62.96666216 40.32636295 -56.68553162 42.12097168 C-54.66411665 43.08280549 -53.01711995 44.04618405 -51.22850037 45.39440918 C-50.29264099 46.04538574 -49.35678162 46.6963623 -48.39256287 47.36706543 C-44.01463973 51.0640237 -41.75680565 56.12994734 -39.16600037 61.14440918 C-38.1545187 63.05599298 -37.1428025 64.9674527 -36.13084412 66.87878418 C-35.6924823 67.72150879 -35.25412048 68.5642334 -34.80247498 69.43249512 C-32.66700074 73.45104227 -30.44818491 77.42190711 -28.22850037 81.39440918 C-28.22485474 80.6103772 -28.22120911 79.82634521 -28.217453 79.01855469 C-28.17947354 71.60383564 -28.12250915 64.18961353 -28.04459763 56.77521515 C-28.00520849 52.96401837 -27.9729785 49.15304966 -27.95750427 45.3416748 C-27.94228055 41.65850578 -27.90773581 37.97596413 -27.86019135 34.29307556 C-27.84543598 32.89303564 -27.83746272 31.49290612 -27.83661652 30.0927887 C-27.82573412 21.10972716 -27.47300814 14.53834837 -21.58787537 7.40612793 C-20.79123474 6.75063965 -20.79123474 6.75063965 -19.97850037 6.08190918 C-19.45771912 5.63202637 -18.93693787 5.18214355 -18.40037537 4.71862793 C-12.47783717 1.10758396 -6.85468157 -0.05061769 0 0 Z " fill="#FEFEFE" transform="translate(284.22850036621094,34.6055908203125)"/>
<path d="M0 0 C1.18291637 -0.00913666 1.18291637 -0.00913666 2.38973004 -0.01845789 C5.01119558 -0.03500089 7.63217075 -0.03032468 10.25367737 -0.0255127 C12.14171347 -0.03285802 14.02974508 -0.04144559 15.91777039 -0.05117798 C21.03141417 -0.07335208 26.14489662 -0.07632677 31.25858188 -0.07443047 C35.53291404 -0.07431059 39.80721223 -0.08288144 44.08153492 -0.09120798 C54.16742197 -0.11042668 64.25322625 -0.11333119 74.33912659 -0.10656738 C84.73320193 -0.09992507 95.12692254 -0.12280225 105.52092594 -0.15988111 C114.45620656 -0.19059597 123.39137317 -0.20193627 132.32670552 -0.1980443 C137.65845849 -0.19597894 142.98993527 -0.20142355 148.32163811 -0.22593689 C153.33608289 -0.24823133 158.34995132 -0.24630361 163.36439896 -0.22600937 C165.20055783 -0.2226043 167.03675572 -0.22766668 168.87286186 -0.24199295 C187.76658602 -0.37919696 187.76658602 -0.37919696 195.59723568 7.14981842 C203.01617176 14.90552737 203.21536374 22.71627123 203.20387268 33.00964355 C203.21289556 34.40019366 203.22321071 35.79073587 203.23470497 37.18126774 C203.26234808 40.98239447 203.27152581 44.78337219 203.27753472 48.58458638 C203.28718213 52.66439484 203.31391709 56.74409609 203.33843994 60.82383728 C203.38330429 68.75920924 203.41203231 76.69455866 203.43444246 84.63002282 C203.45271911 91.0497276 203.47603884 97.46939458 203.50300598 103.8890686 C203.50872474 105.25587931 203.50872474 105.25587931 203.51455903 106.65030235 C203.52229397 108.49720457 203.53003504 110.34410676 203.53778219 112.19100893 C203.58850133 124.39848176 203.6340569 136.60596054 203.66810608 148.81349182 C203.67072614 149.75237218 203.6733462 150.69125254 203.67604566 151.65858382 C203.68131003 153.55138937 203.68657153 155.44419492 203.69183016 157.33700049 C203.73904946 174.2771172 203.81398033 191.2168102 203.91663074 208.15667915 C203.99287287 220.79082891 204.0518359 233.42497142 204.09492016 246.05927849 C204.12036512 253.40222995 204.15341133 260.74496118 204.20664978 268.08776855 C204.25616249 274.93600215 204.27969506 281.78390241 204.28551674 288.63231087 C204.29169348 291.11696127 204.30639608 293.60160831 204.33052635 296.08614922 C204.57596967 322.38181375 204.57596967 322.38181375 197.02867126 331.49998474 C188.41826948 339.88790757 178.39233338 341.00681044 166.84571838 340.96081543 C164.88708611 340.9701133 164.88708611 340.9701133 162.8888855 340.979599 C160.14474118 340.98993176 157.40111789 340.98553978 154.65699768 340.9708252 C151.14843714 340.95354568 147.64150045 340.97727853 144.13312054 341.0123148 C140.76639021 341.03957429 137.40005394 341.02955743 134.03321838 341.02331543 C132.7779686 341.03657364 131.52271881 341.04983185 130.22943115 341.06349182 C120.57763269 340.95997646 120.57763269 340.95997646 117.48170471 338.07775879 C115.2154049 334.52188424 115.01937798 332.53107826 115.77149963 328.39440918 C118.31682502 325.83306544 119.99692817 324.53202368 123.57899475 323.89561462 C125.11191162 323.89586388 125.11191162 323.89586388 126.67579651 323.89611816 C127.84050476 323.88608261 129.00521301 323.87604706 130.20521545 323.8657074 C131.45427673 323.87388992 132.70333801 323.88207245 133.99024963 323.89050293 C135.96214278 323.87610871 137.93403597 323.86169866 139.90592194 323.84635258 C142.66181973 323.82942554 145.41759712 323.82992899 148.17353821 323.83105469 C152.99637685 323.83301901 157.81901683 323.82608376 162.64173889 323.79115295 C165.20703309 323.77432869 167.77246563 323.77151654 170.33778381 323.78416443 C172.08484619 323.77383934 172.08484619 323.77383934 173.86720276 323.76330566 C174.88914734 323.76426743 175.91109192 323.76522919 176.96400452 323.76622009 C180.2614855 323.32951785 182.10691529 322.3603169 184.77149963 320.39440918 C186.94745039 317.13048304 187.02229554 316.22282497 187.02597523 312.4477253 C187.03180742 311.42071735 187.03763961 310.39370939 187.04364854 309.33557999 C187.03986922 308.20379032 187.03608989 307.07200064 187.03219604 305.90591431 C187.03602159 304.70631447 187.03984714 303.50671463 187.04378861 302.27076328 C187.05234206 298.93505648 187.05187733 295.59956929 187.04760802 292.26386857 C187.04514755 288.66868815 187.05414652 285.07353395 187.06164551 281.47836304 C187.07441385 274.43250666 187.07618352 267.38668835 187.07384524 260.34082235 C187.07206418 254.61486393 187.07380718 248.88891709 187.07806969 243.16296005 C187.07896247 241.94180087 187.07896247 241.94180087 187.07987329 240.69597181 C187.08108501 239.04224707 187.08229914 237.38852232 187.08351567 235.73479758 C187.09439959 220.21557386 187.09222478 204.69637185 187.08613082 189.1771469 C187.08096181 174.97372944 187.09221515 160.77038057 187.11122904 146.56697668 C187.13059265 131.9908211 187.13886598 117.414698 187.13510579 102.83852947 C187.13319138 94.65198503 187.13570451 86.46549896 187.14982033 78.278965 C187.16171637 71.30909827 187.16315912 64.33932584 187.15103016 57.36945786 C187.14512869 53.81238822 187.14407675 50.25549121 187.15603256 46.69843292 C187.16883581 42.84449286 187.15845686 38.99081627 187.14572144 35.13687134 C187.15309572 34.00954311 187.16047001 32.88221487 187.16806775 31.72072518 C187.16086121 30.68850173 187.15365467 29.65627829 187.14622974 28.59277534 C187.14631227 27.25840925 187.14631227 27.25840925 187.14639646 25.89708626 C186.59154755 22.19311344 185.05687043 19.36274776 182.05091763 17.09820271 C178.80800969 16.09692184 175.66109325 16.11569312 172.30081177 16.13371277 C171.54546471 16.12988722 170.79011765 16.12606167 170.01188129 16.1221202 C167.47929083 16.11179635 164.94692734 16.11578115 162.4143219 16.11975098 C160.59920542 16.11540417 158.78409078 16.11022112 156.96897888 16.10426331 C152.03719849 16.09085892 147.10549467 16.09029622 142.17369962 16.0928266 C138.05826033 16.09389531 133.94283659 16.08901554 129.82740062 16.08422118 C120.11954617 16.07312108 110.41173041 16.07269147 100.70387268 16.07873535 C90.68479324 16.08477702 80.66585416 16.07246036 70.64679867 16.05116528 C62.04797582 16.03356003 53.44919769 16.02754621 44.85035747 16.03080302 C39.71324437 16.03261769 34.5762314 16.02996137 29.4391346 16.01608849 C24.60872606 16.00353222 19.77853665 16.00543337 14.94813156 16.01849937 C13.17480203 16.02086949 11.40145719 16.01811495 9.62814522 16.00987625 C7.20823157 15.99944372 4.78905796 16.00748091 2.36917114 16.02018738 C1.66663839 16.01281309 0.96410565 16.00543881 0.24028403 15.99784106 C-4.07360508 16.04552849 -6.79256583 16.75841042 -10.22850037 19.39440918 C-11.59132397 22.1200564 -11.35319157 24.2741616 -11.35447693 27.32531738 C-11.36018707 29.19284416 -11.36018707 29.19284416 -11.36601257 31.09809875 C-11.36630337 32.099131 -11.36630337 32.099131 -11.36660004 33.12038612 C-11.370015 35.926109 -11.39137807 38.73160001 -11.4118309 41.53724194 C-11.44984953 46.76171567 -11.48111709 51.98594346 -11.47898865 57.21057129 C-11.47820075 60.84421457 -11.50159797 64.47701139 -11.54087067 68.11043358 C-11.55132212 69.49343241 -11.55286085 70.87652906 -11.54521942 72.25954628 C-11.5355786 74.1981579 -11.55957986 76.13684774 -11.58494568 78.07531738 C-11.58859131 79.17737015 -11.59223694 80.27942291 -11.59599304 81.41487122 C-12.43371604 85.36111403 -14.14113314 86.88529939 -17.22850037 89.39440918 C-21.02330567 90.02687673 -21.95792893 89.57479013 -25.22850037 87.39440918 C-24.90277039 87.99575684 -24.57704041 88.59710449 -24.24143982 89.2166748 C-23.77955261 90.06938965 -23.31766541 90.92210449 -22.84178162 91.80065918 C-22.32245056 92.75939941 -21.80311951 93.71813965 -21.26805115 94.70593262 C-20.09837123 96.86539257 -18.92877745 99.02489917 -17.75926208 101.18444824 C-14.84080555 106.5732059 -11.92137666 111.96142671 -8.99803162 117.34753418 C-2.88830116 128.60834544 3.1860925 139.88751496 9.22895813 151.18432617 C13.5530286 159.26714975 17.89857994 167.33789704 22.27149963 175.39440918 C26.64490784 183.45182135 30.9908985 191.52349229 35.31541443 199.60723877 C47.95921186 223.46338588 47.95921186 223.46338588 61.14649963 247.01940918 C63.59084593 251.24883824 65.86583605 255.51088276 68.02149963 259.89440918 C71.0577807 266.06380032 74.28600297 272.11105802 77.58399963 278.14440918 C78.09591858 279.08091309 78.60783752 280.01741699 79.13526917 280.9822998 C81.63178251 285.53453463 84.14780258 290.07474064 86.69728088 294.59753418 C87.15320618 295.40867676 87.60913147 296.21981934 88.07887268 297.05554199 C88.9309599 298.56804812 89.78759416 300.07800553 90.64967346 301.58483887 C95.39217804 309.99867034 97.63508087 318.26370014 95.11915588 327.89050293 C90.84184833 338.48280532 83.09589183 343.89302302 73.20899963 348.89440918 C71.05339293 350.02075346 68.89844089 351.14835153 66.74415588 352.27722168 C65.71177795 352.81250488 64.67940002 353.34778809 63.61573792 353.89929199 C60.06664066 355.76492904 56.60763919 357.74548912 53.14649963 359.76940918 C48.8370094 362.26164449 44.48834457 364.57159937 40.02149963 366.76940918 C34.931424 369.27537843 29.96325247 371.92138932 25.02149963 374.70690918 C16.1067114 379.7234746 7.06884394 384.49794712 -1.97850037 389.26940918 C-12.448975 394.79344713 -22.89780188 400.34836451 -33.27708435 406.04260254 C-41.59686913 410.60644896 -49.95324578 415.10133922 -58.31443787 419.58874512 C-59.85937927 420.41874023 -59.85937927 420.41874023 -61.43553162 421.26550293 C-62.41989197 421.79385742 -63.40425232 422.32221191 -64.41844177 422.86657715 C-67.7403256 424.67268914 -71.02572949 426.53862128 -74.29759216 428.43371582 C-79.86520979 431.20379742 -86.1727217 431.13885478 -92.22850037 430.39440918 C-106.98747801 425.41547696 -112.17255878 414.2924464 -118.85350037 401.33190918 C-120.0612072 399.01489852 -121.27224685 396.69964941 -122.48338318 394.38442993 C-123.28521709 392.85102403 -124.08600452 391.31707044 -124.88572693 389.78256226 C-128.01461233 383.78168303 -131.21808939 377.82493105 -134.47850037 371.89440918 C-144.02240839 354.49274374 -153.37852516 336.98956308 -162.74281311 319.49078369 C-167.56763924 310.4761116 -172.42394137 301.47905904 -177.30369568 292.49401855 C-180.25124772 287.06155905 -183.18178959 281.62048968 -186.09178162 276.16784668 C-186.41827194 275.55620667 -186.74476227 274.94456665 -187.08114624 274.31439209 C-187.40764664 273.70271179 -187.73414703 273.09103149 -188.07054138 272.46081543 C-188.72734607 271.23033869 -189.38416565 269.99986989 -190.04100037 268.76940918 C-190.36220856 268.16757812 -190.68341675 267.56574707 -191.01435852 266.94567871 C-194.52206338 260.37830785 -198.05052735 253.83245509 -201.79100037 247.39440918 C-203.98624429 243.61241112 -206.05387332 239.82086895 -207.97850037 235.89440918 C-211.19133824 229.34814433 -214.70066079 222.97646934 -218.20750427 216.58483887 C-222.80238073 208.20125373 -227.31495352 199.77506118 -231.81596375 191.34091187 C-236.20891721 183.11327435 -240.65510875 174.92052606 -245.26023865 166.80944824 C-249.42818566 159.41724033 -251.32480599 153.91361746 -250.22850037 145.39440918 C-246.2198477 132.90316115 -236.45161851 128.12625592 -225.41600037 122.39440918 C-224.16759936 121.73726847 -222.91972403 121.07912822 -221.67234802 120.42004395 C-219.1103446 119.06706272 -216.54636469 117.71794513 -213.98094177 116.37145996 C-208.33196398 113.40141247 -202.7187129 110.36516309 -197.10350037 107.33190918 C-194.95517275 106.17415317 -192.80673519 105.01660115 -190.65818787 103.85925293 C-189.06829041 103.0024292 -189.06829041 103.0024292 -187.4462738 102.1282959 C-182.041046 99.21570653 -176.63471469 96.30516688 -171.22850037 93.39440918 C-169.06182847 92.22775222 -166.89516181 91.06108555 -164.72850037 89.89440918 C-151.72850037 82.89440918 -138.72850037 75.89440918 -125.72850037 68.89440918 C-124.65438904 68.31602295 -123.58027771 67.73763672 -122.47361755 67.14172363 C-120.32328973 65.98389214 -118.17289987 64.82617586 -116.02244568 63.6685791 C-110.96077828 60.94368664 -105.899736 58.21765264 -100.84092712 55.48745728 C-99.04449021 54.5180058 -97.24785388 53.54892492 -95.45115662 52.57995605 C-93.19294561 51.36194461 -90.93511225 50.14323264 -88.67771912 48.92370605 C-86.69229473 47.8531833 -84.70437204 46.78727406 -82.71336365 45.72717285 C-80.77823813 44.68926263 -78.86247617 43.61522115 -76.95506287 42.52722168 C-70.87606841 40.00156496 -62.96666216 40.32636295 -56.68553162 42.12097168 C-54.66411665 43.08280549 -53.01711995 44.04618405 -51.22850037 45.39440918 C-50.29264099 46.04538574 -49.35678162 46.6963623 -48.39256287 47.36706543 C-44.01463973 51.0640237 -41.75680565 56.12994734 -39.16600037 61.14440918 C-38.1545187 63.05599298 -37.1428025 64.9674527 -36.13084412 66.87878418 C-35.6924823 67.72150879 -35.25412048 68.5642334 -34.80247498 69.43249512 C-32.66700074 73.45104227 -30.44818491 77.42190711 -28.22850037 81.39440918 C-28.22485474 80.6103772 -28.22120911 79.82634521 -28.217453 79.01855469 C-28.17947354 71.60383564 -28.12250915 64.18961353 -28.04459763 56.77521515 C-28.00520849 52.96401837 -27.9729785 49.15304966 -27.95750427 45.3416748 C-27.94228055 41.65850578 -27.90773581 37.97596413 -27.86019135 34.29307556 C-27.84543598 32.89303564 -27.83746272 31.49290612 -27.83661652 30.0927887 C-27.82573412 21.10972716 -27.47300814 14.53834837 -21.58787537 7.40612793 C-20.79123474 6.75063965 -20.79123474 6.75063965 -19.97850037 6.08190918 C-19.45771912 5.63202637 -18.93693787 5.18214355 -18.40037537 4.71862793 C-12.47783717 1.10758396 -6.85468157 -0.05061769 0 0 Z M-79.97850037 61.51940918 C-81.95969778 62.63110879 -83.94149332 63.74174298 -85.92381287 64.85144043 C-87.47503845 65.7266333 -87.47503845 65.7266333 -89.05760193 66.61950684 C-94.28784878 69.54712422 -99.57116207 72.37470576 -104.85350037 75.20690918 C-107.05142611 76.38918397 -109.24934264 77.57147589 -111.44725037 78.75378418 C-117.82154707 82.17784019 -124.20049229 85.59318704 -130.5799408 89.00762939 C-145.58083769 97.03670743 -160.56567179 105.095818 -175.48631287 113.27331543 C-177.23366112 114.23043355 -178.98105717 115.1874644 -180.72850037 116.14440918 C-181.59354187 116.61854248 -182.45858337 117.09267578 -183.34983826 117.58117676 C-189.01062071 120.67213887 -194.69856051 123.70784211 -200.40428162 126.71472168 C-201.11635773 127.09056396 -201.82843384 127.46640625 -202.56208801 127.8536377 C-206.09745546 129.71940572 -209.63523249 131.58027947 -213.17771912 133.43249512 C-225.27949642 138.73270801 -225.27949642 138.73270801 -234.22850037 147.39440918 C-235.22506389 154.49257393 -232.06593233 159.17697501 -228.60350037 165.20690918 C-227.39966748 167.36406637 -226.19656688 169.52163235 -224.99412537 171.67956543 C-224.36957458 172.78960937 -223.7450238 173.89965332 -223.10154724 175.04333496 C-220.12104309 180.37576457 -217.23921993 185.76027912 -214.35350037 191.14440918 C-213.17919018 193.32679178 -212.00470891 195.50908233 -210.83006287 197.69128418 C-207.1222845 204.58844043 -203.4246691 211.49102651 -199.72850037 218.39440918 C-190.6332822 235.38014969 -181.53690694 252.36508904 -172.29100037 269.26940918 C-167.41938276 278.17620301 -162.614792 287.11811067 -157.82789612 296.07061768 C-153.48538982 304.19162907 -149.12209046 312.30088243 -144.72850037 320.39440918 C-140.01007358 329.08632457 -135.32931345 337.79785557 -130.66600037 346.51940918 C-125.75659388 355.70089556 -120.82279599 364.86803819 -115.80003357 373.98815918 C-113.26782453 378.59944064 -110.78238313 383.23019558 -108.36454773 387.90228271 C-107.03048314 390.47861734 -105.68563436 393.04926698 -104.34080505 395.61999512 C-103.68969189 396.87263123 -103.04404745 398.12812726 -102.40428162 399.38659668 C-101.50799003 401.14892528 -100.59122647 402.9007957 -99.67381287 404.65222168 C-99.15319275 405.66429687 -98.63257263 406.67637207 -98.09617615 407.71911621 C-95.85304088 410.93222422 -93.64758922 412.51134889 -90.22850037 414.39440918 C-84.31553397 415.06900356 -80.44346576 414.07103661 -75.22850037 411.20690918 C-74.55609314 410.85451172 -73.88368591 410.50211426 -73.19090271 410.13903809 C-70.85978391 408.90925982 -68.54409324 407.65316289 -66.22850037 406.39440918 C-64.40838723 405.41617357 -62.58806456 404.43832775 -60.76756287 403.46081543 C-56.71729226 401.27901166 -52.67402157 399.08478728 -48.63475037 396.88269043 C-42.21942589 393.38547484 -35.78838542 389.9179726 -29.35350037 386.45690918 C-27.16860397 385.28112898 -24.98370813 384.10534773 -22.79881287 382.92956543 C-21.71374451 382.34578125 -20.62867615 381.76199707 -19.51072693 381.16052246 C-14.08263487 378.2397535 -8.65561896 375.31698643 -3.22850037 372.39440918 C-1.06183893 371.22773281 1.10482774 370.06106614 3.27149963 368.89440918 C4.88024963 368.02815918 4.88024963 368.02815918 6.52149963 367.14440918 C16.27149963 361.89440918 16.27149963 361.89440918 19.52442932 360.14294434 C21.68145592 358.98139362 23.83835789 357.81961142 25.99513245 356.65759277 C31.55826946 353.66069873 37.12380586 350.66839779 42.69337463 347.68347168 C64.21980113 338.57017499 64.21980113 338.57017499 79.77149963 323.39440918 C80.85617187 315.85166183 78.49936096 310.96130215 74.70899963 304.58190918 C73.59920513 302.63367011 72.49121833 300.68440049 71.38478088 298.73425293 C70.50040344 297.19293701 70.50040344 297.19293701 69.59815979 295.6204834 C66.42606769 290.01823466 63.42010604 284.32773494 60.39649963 278.64440918 C59.1230997 276.26087933 57.84768024 273.87843213 56.57228088 271.49597168 C56.25629944 270.90531418 55.94031799 270.31465668 55.61476135 269.70610046 C39.08684894 238.71525853 39.08684894 238.71525853 22.02149963 208.01940918 C19.17360064 203.007912 16.5002815 197.94289534 13.95899963 192.76940918 C9.38436807 183.45878338 4.36561833 174.39909381 -0.62986755 165.30944824 C-3.28303688 160.47150662 -5.91309651 155.62110939 -8.54100037 150.76940918 C-9.07193298 149.78988281 -9.6028656 148.81035645 -10.14988708 147.80114746 C-13.15070896 142.2575286 -16.13524356 136.70550957 -19.10350037 131.14440918 C-20.41596905 128.68605913 -21.72847178 126.22772725 -23.04100037 123.76940918 C-23.36226898 123.16745728 -23.6835376 122.56550537 -24.01454163 121.9453125 C-27.500119 115.41877662 -31.00549971 108.91389028 -34.72850037 102.51940918 C-37.14826302 98.3572106 -39.36772205 94.15900473 -41.47850037 89.83190918 C-44.5858128 83.53852755 -47.91875917 77.39009288 -51.35350037 71.26940918 C-51.85655701 70.35602783 -52.35961365 69.44264648 -52.87791443 68.50158691 C-55.90855963 63.15905223 -58.5841275 59.21659561 -64.22850037 56.39440918 C-70.4811145 55.44292442 -74.7615511 58.51070972 -79.97850037 61.51940918 Z " fill="#3E3E3E" transform="translate(284.22850036621094,34.6055908203125)"/>
<path d="M0 0 C6.53705162 3.02446312 12.79757879 6.54586693 19.04589844 10.12158203 C22.81348303 12.27187926 26.62268359 14.33766223 30.43945312 16.39892578 C33.14061912 17.86001777 35.83348119 19.33549672 38.52490234 20.81445312 C44.63907759 24.16836106 50.77762837 27.47632174 56.91943359 30.77929688 C58.00732178 31.36445068 59.09520996 31.94960449 60.21606445 32.55249023 C62.42894897 33.74251296 64.64192134 34.93237235 66.85498047 36.12207031 C72.2944849 39.04696589 77.73185029 41.97583188 83.16943359 44.90429688 C85.33869921 46.07227532 87.50797004 47.24024407 89.67724609 48.40820312 C93.98497721 50.72770088 98.29223096 53.04808171 102.59912109 55.36914062 C104.74754805 56.52671229 106.89598555 57.68426436 109.04443359 58.84179688 C110.10307617 59.41236816 111.16171875 59.98293945 112.25244141 60.57080078 C118.62669659 64.00405346 125.00852413 67.42269508 131.39666748 70.83000183 C136.67203088 73.64471935 141.93971092 76.47346359 147.20361328 79.30957031 C149.01958821 80.28602308 150.8374972 81.25890263 152.65869141 82.22558594 C161.6982503 87.02747106 169.49009738 91.48964036 172.68115234 101.76757812 C174.97591037 111.80943926 171.35878271 118.61864721 166.61230469 127.265625 C164.95653652 130.29363555 163.33757517 133.33997632 161.72021484 136.38867188 C155.46992357 148.14787434 149.12352588 159.85426185 142.72900391 171.53564453 C138.66536564 178.96850186 134.66261568 186.43344184 130.66943359 193.90429688 C126.20481832 202.25715752 121.71753807 210.59651843 117.16943359 218.90429688 C112.68976665 227.09020656 108.25983326 235.30185291 103.85693359 243.52929688 C103.54290588 244.11610229 103.22887817 244.70290771 102.90533447 245.30749512 C100.98100459 248.90405818 99.0577935 252.50121877 97.13482666 256.09851074 C89.12811076 271.07522545 81.1083979 286.04449022 73.01049805 300.97216797 C69.07146707 308.23432402 65.14761338 315.50452476 61.23193359 322.77929688 C60.65411133 323.85244141 60.07628906 324.92558594 59.48095703 326.03125 C56.47978198 331.60652906 53.48244945 337.18384064 50.48974609 342.76367188 C47.57580736 348.19539688 44.64833937 353.61964786 41.71337891 359.04003906 C40.30812596 361.64700104 38.92032964 364.26242408 37.53662109 366.88085938 C30.35093443 380.3219892 30.35093443 380.3219892 24.16943359 383.90429688 C23.50556641 384.3090625 22.84169922 384.71382813 22.15771484 385.13085938 C16.10549253 388.32538965 9.89976931 388.99267459 3.16943359 387.90429688 C-4.56557555 385.41656468 -11.61259114 381.4916246 -18.70556641 377.59179688 C-20.42345364 376.65691909 -22.14134963 375.7220571 -23.85968018 374.78799438 C-25.04914654 374.14104751 -26.23823021 373.49339654 -27.42694092 372.84506226 C-33.87527148 369.32829761 -40.35280313 365.86648731 -46.83056641 362.40429688 C-60.17611328 355.26024322 -73.50812993 348.09134671 -86.83056641 340.90429688 C-87.88856445 340.33404785 -88.9465625 339.76379883 -90.03662109 339.17626953 C-96.07977521 335.91806851 -102.11666935 332.6487952 -108.14501953 329.36328125 C-110.69675659 327.9769921 -113.25529329 326.60403025 -115.81494141 325.23242188 C-117.2788656 324.43624982 -118.74243473 323.63942441 -120.20556641 322.84179688 C-120.85992676 322.49592529 -121.51428711 322.15005371 -122.18847656 321.79370117 C-125.50902857 319.96318689 -127.73756628 318.64117568 -128.83056641 314.90429688 C-128.70060409 311.20037099 -128.57436534 308.81974172 -126.20556641 305.90429688 C-122.75735758 304.45241947 -120.47366629 305.15312538 -116.83056641 305.90429688 C-114.32506359 307.00836645 -112.00962759 308.13358163 -109.62353516 309.44726562 C-108.9495015 309.80728165 -108.27546783 310.16729767 -107.58100891 310.53822327 C-105.387823 311.71275939 -103.20304708 312.90207728 -101.01806641 314.09179688 C-99.48602676 314.91599231 -97.95346859 315.73922457 -96.42041016 316.56152344 C-92.59051919 318.61863305 -88.76705898 320.68738099 -84.94525146 322.75946045 C-81.87604763 324.42104893 -78.8007667 326.07111059 -75.72509766 327.72070312 C-70.46833741 330.54160602 -65.21776312 333.3737707 -59.96923828 336.20996094 C-56.72171923 337.96305539 -53.47181557 339.71165473 -50.22119141 341.45898438 C-40.75138906 346.54977568 -31.28439343 351.64501438 -21.84790039 356.79736328 C-19.99057852 357.81103062 -18.13205404 358.82249817 -16.2722168 359.83154297 C-12.44911963 361.90834847 -8.64186163 363.99652335 -4.89306641 366.20507812 C2.52500074 370.48935533 6.77990826 371.75152675 15.29052734 370.62304688 C17.86899373 369.63668967 18.0373833 368.37187504 19.16943359 365.90429688 C27.53353672 349.7023232 36.24240161 333.67730681 45.16113281 317.7746582 C48.6027051 311.63338146 51.94071397 305.47369715 55.04443359 299.15429688 C59.59617628 289.88829073 64.59496357 280.87374784 69.56640625 271.828125 C72.24299075 266.94619141 74.89414334 262.05054132 77.54443359 257.15429688 C78.34905029 255.66857178 78.34905029 255.66857178 79.16992188 254.15283203 C83.80108941 245.59610697 88.41026115 237.02759219 93.01757812 228.45800781 C96.62311701 221.75759005 100.26066729 215.0757566 103.91943359 208.40429688 C109.14324529 198.87278638 114.22224136 189.26696637 119.29443359 179.65429688 C124.26099895 170.24191495 129.24001201 160.84583702 134.45922852 151.5703125 C138.43619091 144.48262279 142.27023676 137.31849683 146.10693359 130.15429688 C146.43680267 129.53903137 146.76667175 128.92376587 147.10653687 128.28985596 C154.46244743 116.72429425 154.46244743 116.72429425 156.16943359 103.90429688 C150.15879704 99.67002457 143.57555022 96.35875659 137.08728027 92.91766357 C135.2464223 91.94133327 133.40741152 90.96160003 131.56884766 89.98095703 C129.65637716 88.9609359 127.74380708 87.94110737 125.83068848 86.92230225 C119.51692532 83.55988247 113.21670869 80.1724888 106.91943359 76.77929688 C105.84951172 76.20308594 104.77958984 75.626875 103.67724609 75.03320312 C95.56125368 70.66002275 87.4561259 66.26696141 79.35253906 61.87084961 C71.59732018 57.66793523 63.82298607 53.50128268 56.04443359 49.34179688 C47.69251598 44.87555351 39.35468359 40.38521206 31.04443359 35.84179688 C30.18116455 35.3714502 29.31789551 34.90110352 28.4284668 34.41650391 C23.9622429 31.98247988 19.50289935 29.5370992 15.05511475 27.06950378 C13.28106869 26.08739804 11.50435517 25.11031509 9.7265625 24.13500977 C7.44933326 22.88503141 5.17661205 21.62679382 2.90917969 20.35913086 C-4.54758705 16.12859662 -4.54758705 16.12859662 -12.83056641 14.90429688 C-18.79923653 17.01041683 -20.57605127 20.10462603 -23.21337891 25.49414062 C-23.59493134 26.23507462 -23.97648376 26.97600861 -24.36959839 27.73939514 C-25.58166743 30.09875562 -26.76982554 32.46911061 -27.95556641 34.84179688 C-29.15179431 37.20895991 -30.35303575 39.57329308 -31.56295776 41.93348694 C-32.31303173 43.39928192 -33.05477555 44.86937866 -33.78689575 46.34422302 C-35.70572475 50.12167478 -37.50767489 53.15279172 -40.83056641 55.90429688 C-43.73841522 56.61311991 -45.77310541 56.24401476 -48.83056641 55.90429688 C-50.84676484 54.40220605 -51.68654837 53.46280054 -52.31689453 51.01831055 C-52.46527701 43.97094924 -49.84792937 39.18819491 -46.33056641 33.21679688 C-45.50842651 31.77530273 -45.50842651 31.77530273 -44.66967773 30.3046875 C-43.57260878 28.38397144 -42.46834105 26.46734688 -41.35644531 24.55517578 C-40.02782739 22.24699444 -38.74881 19.92345362 -37.49853516 17.57226562 C-29.70049789 3.01592939 -17.03600963 -6.59458437 0 0 Z " fill="#3F3F3F" transform="translate(542.83056640625,77.095703125)"/>
<path d="M0 0 C16.10437678 12.85877301 28.4537065 35.96506734 37.9375 53.875 C38.38617432 54.71828857 38.83484863 55.56157715 39.29711914 56.43041992 C46.6874985 70.71848668 51.78314396 86.08310778 48.3125 102.3125 C44.80590637 112.16435829 40.72378074 118.93034324 31.625 124.4375 C22.7809175 126.33266054 17.60962589 124.59930454 10 120 C10.45439453 120.81154541 10.90878906 121.62309082 11.37695312 122.45922852 C13.06614256 125.49262294 14.74168196 128.53276934 16.40869141 131.57836914 C17.13094418 132.89151194 17.85841746 134.20179808 18.59130859 135.5090332 C19.64787657 137.39576172 20.68483532 139.29219005 21.71875 141.19140625 C22.66137695 142.89598999 22.66137695 142.89598999 23.62304688 144.63500977 C25.15866952 148.38775566 25.41443729 150.98283974 25 155 C22.6051857 157.3948143 22.06331278 157.25798692 18.79736328 157.29052734 C17.92951202 157.30328705 17.06166077 157.31604675 16.16751099 157.32919312 C15.22793549 157.33141876 14.28835999 157.33364441 13.3203125 157.3359375 C12.35600311 157.3425943 11.39169373 157.3492511 10.39816284 157.35610962 C8.35546785 157.36624722 6.31273966 157.3709263 4.27001953 157.37060547 C1.1443006 157.37497303 -1.98000038 157.41126558 -5.10546875 157.44921875 C-7.08853683 157.45508777 -9.07161163 157.45905659 -11.0546875 157.4609375 C-11.99021454 157.47530853 -12.92574158 157.48967957 -13.88961792 157.50448608 C-17.84070275 157.47667404 -20.27329651 157.44776146 -23.68408203 155.34619141 C-25 153 -25 153 -24.90649414 150.07373047 C-24.02285532 147.07749757 -22.97206353 144.56867002 -21.49609375 141.8203125 C-21.00302734 140.8921875 -20.50996094 139.9640625 -20.00195312 139.0078125 C-19.48568359 138.05648437 -18.96941406 137.10515625 -18.4375 136.125 C-17.91736328 135.15046875 -17.39722656 134.1759375 -16.86132812 133.171875 C-15.58175363 130.77707502 -14.2944962 128.38675718 -13 126 C-15.9254644 125.7763932 -15.9254644 125.7763932 -18 127 C-24.50180329 127.82284233 -29.68643743 126.88822823 -35 123 C-43.3701815 115.48672922 -47.51510626 106.48803125 -48.23828125 95.3203125 C-49.09847773 63.3745269 -29.6764391 33.34048363 -12 8 C-11.31115723 6.99573975 -11.31115723 6.99573975 -10.60839844 5.97119141 C-7.37246792 1.31613847 -5.83100476 -0.69313578 0 0 Z " fill="#3F3F3F" transform="translate(373,114)"/>
<path d="M0 0 C11.16481382 3.72160461 18.81391209 11.4680401 24.3125 21.6875 C29.79218798 33.76778935 30.46647835 45.69777949 30.33618164 58.72998047 C30.31265901 61.23307947 30.31563826 63.73509981 30.32226562 66.23828125 C30.29690747 81.71160159 28.77897972 96.79116672 25.5625 111.9375 C25.35818359 112.97583984 25.15386719 114.01417969 24.94335938 115.08398438 C24.73646484 116.07591797 24.52957031 117.06785156 24.31640625 118.08984375 C24.13537354 118.96503662 23.95434082 119.84022949 23.76782227 120.74194336 C22.91334622 123.25483651 22.08996366 124.38740158 20 126 C14.26336928 126.9829382 10.17926929 124.42935583 5.3125 121.75 C4.48741943 121.30470947 3.66233887 120.85941895 2.81225586 120.40063477 C-10.79286131 112.94674682 -23.82208139 104.61604536 -36 95 C-36.88042969 94.32324219 -37.76085937 93.64648438 -38.66796875 92.94921875 C-52.17687973 82.4241217 -65.73711096 68.76703967 -68 51 C-68.75498652 41.89701972 -68.43222294 34.59615791 -63 27 C-60.5625 24.5625 -60.5625 24.5625 -58 23 C-56.63875 22.13375 -56.63875 22.13375 -55.25 21.25 C-48.9112577 18.81202219 -43.11851857 19.46908558 -36.9296875 22.06640625 C-33.84936458 23.55668394 -30.92898013 25.23040784 -28 27 C-27.90203125 26.3709375 -27.8040625 25.741875 -27.703125 25.09375 C-26.19504403 16.46128654 -23.82222944 9.8238544 -17 4 C-11.07847963 0.14412627 -7.03603153 -0.59250792 0 0 Z " fill="#EF4B56" transform="translate(204,197)"/>
<path d="M0 0 C3.1875 1 3.1875 1 5.1875 4 C5.4659729 6.11282349 5.4659729 6.11282349 5.50634766 8.59033203 C5.52618713 9.5257634 5.54602661 10.46119476 5.56646729 11.42497253 C5.57804871 12.44230972 5.58963013 13.45964691 5.6015625 14.5078125 C5.62120056 15.56966263 5.64083862 16.63151276 5.66107178 17.72554016 C5.72212055 21.19194784 5.76838724 24.65833808 5.8125 28.125 C5.84692898 30.49617861 5.88159758 32.86735376 5.91650391 35.23852539 C5.98384846 39.96022774 6.04377099 44.68195737 6.09960938 49.40380859 C6.16028574 54.32808606 6.25121442 59.25062817 6.36697388 64.17388916 C6.43587375 67.23528015 6.48485015 70.29672353 6.52752686 73.35858154 C6.55067536 74.73460455 6.58217012 76.11051473 6.62237549 77.48614502 C6.91771608 87.9424931 6.91771608 87.9424931 4.11328125 92.00390625 C3.14777344 92.66261719 2.18226563 93.32132812 1.1875 94 C0.06627566 94.88195102 -1.05203287 95.76761693 -2.16796875 96.65625 C-3.44194995 97.60868109 -4.71948934 98.5563658 -6 99.5 C-6.69198486 100.01481934 -7.38396973 100.52963867 -8.09692383 101.06005859 C-14.12284155 105.52814155 -20.21295618 109.9067441 -26.30712891 114.28100586 C-30.72891004 117.46402048 -35.07759002 120.7135209 -39.375 124.0625 C-44.47556557 128.00000667 -49.60896096 131.88681333 -54.8125 135.6875 C-55.53123291 136.22963135 -56.24996582 136.7717627 -56.99047852 137.33032227 C-62.07316859 140.99486575 -62.07316859 140.99486575 -65.625 141.01953125 C-68.01044097 139.90774537 -69.18232389 139.05876491 -70.8125 137 C-71.21122742 134.67044067 -71.21122742 134.67044067 -71.24487305 131.88720703 C-71.26462692 130.83894241 -71.2843808 129.7906778 -71.30473328 128.71064758 C-71.31116348 127.57121201 -71.31759369 126.43177643 -71.32421875 125.2578125 C-71.3425325 124.07386398 -71.36084625 122.88991547 -71.37971497 121.67008972 C-71.4352247 117.82174467 -71.46898515 113.97361502 -71.5 110.125 C-71.52798074 107.50544529 -71.55662591 104.88589758 -71.5859375 102.26635742 C-71.62801689 98.3893733 -71.66776764 94.5124396 -71.70004272 90.63536072 C-71.75875244 83.74595875 -71.88145987 76.86604477 -72.11328125 69.98046875 C-72.14957338 68.62682666 -72.18457114 67.27314899 -72.21801758 65.91943359 C-72.27891302 63.59470697 -72.3641424 61.27042754 -72.47924805 58.94775391 C-72.59717434 52.09474123 -72.59717434 52.09474123 -70.53295898 49.21484375 C-68.72014825 47.60043581 -66.85272707 46.31395188 -64.8125 45 C-63.38234851 43.93029725 -61.95672904 42.85451476 -60.53515625 41.7734375 C-58.98364682 40.63805699 -57.43018163 39.5053453 -55.875 38.375 C-54.17796109 37.13339226 -52.48135299 35.89119551 -50.78515625 34.6484375 C-49.94484863 34.03323242 -49.10454102 33.41802734 -48.23876953 32.78417969 C-44.7443611 30.21453421 -41.27685577 27.60994394 -37.8125 25 C-31.81558148 20.48819982 -25.79105539 16.01503347 -19.75 11.5625 C-18.57147461 10.69334961 -18.57147461 10.69334961 -17.36914062 9.80664062 C-15.88148103 8.71161098 -14.39142893 7.61982216 -12.89868164 6.53173828 C-11.5329451 5.52897279 -10.17740164 4.51213789 -8.83374023 3.47998047 C-4.22371342 0 -4.22371342 0 0 0 Z " fill="#3F3E3E" transform="translate(575.8125,200)"/>
<path d="M0 0 C4.04703894 2.94395222 6.87716633 6.224067 9.6875 10.3125 C10.11683838 10.92859131 10.54617676 11.54468262 10.98852539 12.17944336 C11.88740344 13.47443715 12.78246324 14.77208898 13.67382812 16.07226562 C14.92945549 17.89745591 16.20482398 19.70716577 17.484375 21.515625 C30.19804776 39.73762862 43.35665103 60.93182655 40 84 C38.49724852 89.04407157 36.53455457 92.6621832 32.5625 96.125 C29.22601299 97.26428825 27.51220377 97.68866741 24 97 C15.02474143 91.48763647 11.46332523 82.44559544 8.67578125 72.71484375 C8.13813029 70.79065727 8.13813029 70.79065727 6 70 C4.00039988 69.960008 1.99952758 69.95653201 0 70 C-0.391875 71.051875 -0.78375 72.10375 -1.1875 73.1875 C-1.46207031 73.91066406 -1.73664063 74.63382812 -2.01953125 75.37890625 C-2.74455275 77.31711114 -3.44687472 79.26384155 -4.13671875 81.21484375 C-8.78146 94.00619742 -8.78146 94.00619742 -14.9375 98.375 C-17.8777872 99.26599612 -19.93971494 99.43718358 -23 99 C-28.32593631 94.94214376 -30.92690683 89.2192795 -33 83 C-33.17603147 80.58750308 -33.26744968 78.16849105 -33.3125 75.75 C-33.34988281 74.46609375 -33.38726562 73.1821875 -33.42578125 71.859375 C-32.85383089 59.73402734 -27.81161201 48.44686477 -22.5 37.75 C-22.19685883 37.13013214 -21.89371765 36.51026428 -21.58139038 35.87161255 C-15.44116038 23.32682536 -8.58761048 11.05762554 0 0 Z " fill="#A7A7A7" transform="translate(370,130)"/>
<path d="M0 0 C11.16481382 3.72160461 18.81391209 11.4680401 24.3125 21.6875 C29.79218798 33.76778935 30.46647835 45.69777949 30.33618164 58.72998047 C30.31265901 61.23307947 30.31563826 63.73509981 30.32226562 66.23828125 C30.29690747 81.71160159 28.77897972 96.79116672 25.5625 111.9375 C25.35818359 112.97583984 25.15386719 114.01417969 24.94335938 115.08398438 C24.73646484 116.07591797 24.52957031 117.06785156 24.31640625 118.08984375 C24.13537354 118.96503662 23.95434082 119.84022949 23.76782227 120.74194336 C22.91334622 123.25483651 22.08996366 124.38740158 20 126 C14.26336928 126.9829382 10.17926929 124.42935583 5.3125 121.75 C4.48741943 121.30470947 3.66233887 120.85941895 2.81225586 120.40063477 C-10.79286131 112.94674682 -23.82208139 104.61604536 -36 95 C-36.88042969 94.32324219 -37.76085937 93.64648438 -38.66796875 92.94921875 C-52.17687973 82.4241217 -65.73711096 68.76703967 -68 51 C-68.75498652 41.89701972 -68.43222294 34.59615791 -63 27 C-60.5625 24.5625 -60.5625 24.5625 -58 23 C-56.63875 22.13375 -56.63875 22.13375 -55.25 21.25 C-48.9112577 18.81202219 -43.11851857 19.46908558 -36.9296875 22.06640625 C-33.84936458 23.55668394 -30.92898013 25.23040784 -28 27 C-27.90203125 26.3709375 -27.8040625 25.741875 -27.703125 25.09375 C-26.19504403 16.46128654 -23.82222944 9.8238544 -17 4 C-11.07847963 0.14412627 -7.03603153 -0.59250792 0 0 Z M-11.3125 14.25 C-11.869375 15.1575 -12.42625 16.065 -13 17 C-13.36077637 17.5868457 -13.72155273 18.17369141 -14.09326172 18.77832031 C-15.29221531 21.7159826 -15.22520408 24.12836775 -15.1953125 27.296875 C-15.18564453 29.10478516 -15.18564453 29.10478516 -15.17578125 30.94921875 C-15.15902344 32.20347656 -15.14226562 33.45773438 -15.125 34.75 C-15.11597656 36.01972656 -15.10695312 37.28945312 -15.09765625 38.59765625 C-15.07409005 41.73196093 -15.04118832 44.86588541 -15 48 C-15.66 48 -16.32 48 -17 48 C-17 48.66 -17 49.32 -17 50 C-22.37459651 48.03620512 -24.3889458 46.52699678 -28 42 C-29.95091505 40.35656612 -31.95440402 38.77396901 -34 37.25 C-35.03125 36.47140625 -36.0625 35.6928125 -37.125 34.890625 C-41.64608297 31.91752153 -45.5943557 31.33614895 -51 32 C-54.79818861 34.7476258 -55.71510206 36.43609217 -56.55078125 41.0234375 C-57.31236173 54.31376352 -50.91516384 64.72977833 -42.4140625 74.49609375 C-29.65120248 87.73394694 -12.72373414 97.67119563 3 107 C3.73992187 107.45246094 4.47984375 107.90492188 5.2421875 108.37109375 C8.06536049 110.06382611 9.64441312 111 13 111 C18.0074707 94.80562667 19.26238882 77.54466812 19.3125 60.6875 C19.31789795 59.58591553 19.3232959 58.48433105 19.32885742 57.34936523 C19.21668977 44.51446004 17.55482542 29.21765594 9 19 C4.48824775 14.94736931 0.70740634 12.29535342 -5.4375 11.625 C-9.10688438 11.63995173 -9.10688438 11.63995173 -11.3125 14.25 Z " fill="#413E3E" transform="translate(204,197)"/>
<path d="M0 0 C0.44172199 6.59427827 0.70719981 13.18753132 0.92340088 19.79284668 C1.0094666 22.27277385 1.10932978 24.75200844 1.20849609 27.23144531 C1.39660008 32.11572259 1.52181128 36.99917997 1.61669922 41.8861084 C1.66374205 43.87204604 1.72856987 45.85764526 1.81152344 47.84240723 C2.45985988 63.86529234 2.45985988 63.86529234 -0.95410156 68.85742188 C-3.52704164 70.94251096 -6.07370605 72.45908505 -9 74 C-10.54204965 75.11533407 -12.06645103 76.25556119 -13.5703125 77.421875 C-15.08706811 78.53326382 -16.60532867 79.64260137 -18.125 80.75 C-22.93780502 84.27232182 -27.74764968 87.79602689 -32.50390625 91.39453125 C-33.2107959 91.92916992 -33.91768555 92.46380859 -34.64599609 93.01464844 C-35.95700427 94.00864411 -37.26609563 95.00517586 -38.57275391 96.00488281 C-41.70760347 98.37943643 -44.88067952 100.59319635 -48.22583008 102.66381836 C-48.93572586 103.10422958 -49.64562164 103.54464081 -50.37702942 103.99839783 C-50.91260971 104.32892654 -51.44819 104.65945526 -52 105 C-52.05623535 103.90905029 -52.1124707 102.81810059 -52.17041016 101.6940918 C-52.20862885 100.96196976 -52.24684753 100.22984772 -52.28622437 99.47554016 C-52.37324233 97.7984449 -52.45864946 96.12126545 -52.54263306 94.4440155 C-52.78574056 89.68799321 -53.06887963 84.93921717 -53.42089844 80.18994141 C-56.13483073 42.46920781 -56.13483073 42.46920781 -51.11181641 34.36865234 C-46.49711527 29.06619676 -40.95677576 25.95416998 -34.56884766 23.17138672 C-31.05174456 21.5675984 -28.38447978 19.47741408 -25.375 17.0625 C-22.78754637 15.15749773 -21.06469789 14.02156596 -18 13 C-16.90699999 11.87284374 -15.81535998 10.74433813 -14.73046875 9.609375 C-4.39805825 0 -4.39805825 0 0 0 Z " fill="#F04B56" transform="translate(569,218)"/>
<path d="M0 0 C0.33 0 0.66 0 1 0 C1.66 16.5 2.32 33 3 50 C8.28 46.04 13.56 42.08 19 38 C24.33333333 34 29.66666667 30 35 26 C35.66 26.33 36.32 26.66 37 27 C35.71034824 28.37562854 34.37310707 29.70766393 33 31 C32.34 31 31.68 31 31 31 C30.79375 31.61875 30.5875 32.2375 30.375 32.875 C28.45224112 35.84653645 26.33405473 36.13024659 23 37 C23 38.32 23 39.64 23 41 C24.32 41.66 25.64 42.32 27 43 C26.505 43.598125 26.01 44.19625 25.5 44.8125 C23.71723582 46.97029994 23.71723582 46.97029994 24 50 C21.86974265 51.85812283 19.7760903 53.52893524 17.5 55.1875 C16.87996094 55.65091797 16.25992188 56.11433594 15.62109375 56.59179688 C14.08707119 57.7364137 12.54433057 58.86932941 11 60 C10.34 59.67 9.68 59.34 9 59 C9 58.34 9 57.68 9 57 C7.515 57.495 7.515 57.495 6 58 C5.67 56.35 5.34 54.7 5 53 C2.36 53.66 -0.28 54.32 -3 55 C-3 53.68 -3 52.36 -3 51 C-2.01 50.505 -2.01 50.505 -1 50 C-0.67 33.5 -0.34 17 0 0 Z " fill="#403D3D" transform="translate(515,272)"/>
<path d="M0 0 C0.33 0 0.66 0 1 0 C1 22.44 1 44.88 1 68 C-1.475 68.99 -1.475 68.99 -4 70 C-4.88693303 72.04105639 -4.88693303 72.04105639 -5 74 C-4.34 74 -3.68 74 -3 74 C-2.67 72.68 -2.34 71.36 -2 70 C-0.35 70.33 1.3 70.66 3 71 C3 71.66 3 72.32 3 73 C5.475 72.01 5.475 72.01 8 71 C7.43730914 74.27767426 6.62365015 75.82223669 4 77.875 C1.64407568 79.48131204 0.51103247 80.03553537 -2.359375 79.8359375 C-4.75 79.25 -4.75 79.25 -6.984375 78.515625 C-9.18164287 77.75972675 -9.18164287 77.75972675 -12 79 C-12.33 78.34 -12.66 77.68 -13 77 C-15.475 77.99 -15.475 77.99 -18 79 C-14.5314148 75.28927231 -11.06733542 72.76674668 -6.75854492 70.11523438 C-3.20365167 67.4697641 -1.31712516 65.9888851 0.04623413 61.73754883 C0.36941151 57.84220522 0.32762891 54.05097085 0.13671875 50.15625 C0.11174855 48.736698 0.09229514 47.3170393 0.07807922 45.89733887 C0.02694437 42.18626752 -0.09538591 38.48102686 -0.23431396 34.77233887 C-0.36473469 30.98189124 -0.43193162 27.19040382 -0.50195312 23.3984375 C-0.58157312 19.14481437 -0.66697958 14.892427 -0.80549622 10.64025879 C-0.84430405 9.38805542 -0.88311188 8.13585205 -0.9230957 6.84570312 C-0.96151077 5.73811646 -0.99992584 4.63052979 -1.039505 3.48937988 C-1 1 -1 1 0 0 Z " fill="#443C3D" transform="translate(570,219)"/>
<path d="M0 0 C0.66 0 1.32 0 2 0 C3.33838733 2.45570175 4.67086232 4.91429916 6 7.375 C6.3815625 8.07367188 6.763125 8.77234375 7.15625 9.4921875 C10 14.7734375 10 14.7734375 10 17 C4.06 17 -1.88 17 -8 17 C-5.36 11.39 -2.72 5.78 0 0 Z " fill="#A6A6A6" transform="translate(372,242)"/>
<path d="M0 0 C0.33 0 0.66 0 1 0 C1.66 16.5 2.32 33 3 50 C5.64 48.02 8.28 46.04 11 44 C11.66 44 12.32 44 13 44 C13 44.66 13 45.32 13 46 C12.34 46 11.68 46 11 46 C10.896875 46.763125 10.79375 47.52625 10.6875 48.3125 C9.95635961 51.17059424 9.23048087 52.15742885 7 54 C6.01 53.67 5.02 53.34 4 53 C1.64811553 53.59793673 -0.68925595 54.25881795 -3 55 C-3 53.68 -3 52.36 -3 51 C-2.01 50.505 -2.01 50.505 -1 50 C-0.67 33.5 -0.34 17 0 0 Z " fill="#593637" transform="translate(515,272)"/>
<path d="M0 0 C0.66 0.33 1.32 0.66 2 1 C0.87720538 1.98169476 -0.24831473 2.96027298 -1.375 3.9375 C-2.00148438 4.48277344 -2.62796875 5.02804688 -3.2734375 5.58984375 C-5 7 -5 7 -7 8 C-7.02527062 14.39037231 -7.04283317 20.78073183 -7.05493164 27.17114258 C-7.05997308 29.34692873 -7.06680607 31.52271147 -7.07543945 33.69848633 C-7.08751338 36.81853067 -7.09323005 39.93853038 -7.09765625 43.05859375 C-7.10281754 44.03775253 -7.10797882 45.01691132 -7.11329651 46.02574158 C-7.11337204 46.92659988 -7.11344757 47.82745819 -7.11352539 48.75561523 C-7.115746 49.55281479 -7.11796661 50.35001434 -7.12025452 51.17137146 C-7.20050456 53.01922281 -7.20050456 53.01922281 -6 54 C-5.92728259 56.35313555 -5.91629132 58.70833668 -5.9375 61.0625 C-5.94652344 62.35285156 -5.95554687 63.64320313 -5.96484375 64.97265625 C-5.97644531 65.97167969 -5.98804688 66.97070312 -6 68 C-3.13275314 67.42655063 -2.1385485 67.1385485 0 65 C2.125 65.375 2.125 65.375 4 66 C2.18959679 67.33617897 0.3766216 68.66887384 -1.4375 70 C-2.44683594 70.7425 -3.45617187 71.485 -4.49609375 72.25 C-7 74 -7 74 -8 74 C-8.8090912 60.4883778 -9.38820877 46.97892951 -9.56982422 33.44335938 C-9.60698575 31.29259449 -9.66203054 29.1420729 -9.73388672 26.9921875 C-9.83714662 23.83252984 -9.88164326 20.67670616 -9.9140625 17.515625 C-9.95737701 16.56141663 -10.00069153 15.60720825 -10.0453186 14.62408447 C-10.03326576 10.37071722 -9.91625848 7.97898476 -6.93426514 4.79284668 C-4.69033492 3.03646924 -2.44233529 1.46488545 0 0 Z " fill="#CF515C" transform="translate(525,249)"/>
<path d="M0 0 C1.5778125 0.4021875 1.5778125 0.4021875 3.1875 0.8125 C2.72665076 3.50078723 2.17271323 5.84816221 1.125 8.375 C-0.05181939 10.99946827 -0.05181939 10.99946827 0.1875 14.8125 C-1.5625 15.5625 -1.5625 15.5625 -3.8125 15.8125 C-6.95389977 13.6583973 -7.74704896 12.02425338 -8.875 8.375 C-8.8125 4.8125 -8.8125 4.8125 -6.8125 1.8125 C-3.8125 -0.1875 -3.8125 -0.1875 0 0 Z " fill="#3E3E3E" transform="translate(422.8125,382.1875)"/>
<path d="M0 0 C0.33 0 0.66 0 1 0 C1 22.44 1 44.88 1 68 C-1.475 68.99 -1.475 68.99 -4 70 C-4.66 70.99 -5.32 71.98 -6 73 C-7.32 72.67 -8.64 72.34 -10 72 C-9.36010132 71.66463226 -8.72020264 71.32926453 -8.06091309 70.98373413 C-4.04985505 68.47587119 -1.41290377 66.60646359 -0.20239258 61.89678955 C0.02440467 58.03000284 -0.01309889 54.21749771 -0.15625 50.3515625 C-0.17560206 48.92911677 -0.19079527 47.50660895 -0.20202637 46.08407593 C-0.24186762 42.35773869 -0.33490237 38.63465342 -0.44030762 34.90966797 C-0.55898407 30.36744191 -0.61499569 25.82409022 -0.6802597 21.28084373 C-0.73213356 17.75052028 -0.7933728 14.22115824 -0.88244629 10.69155884 C-0.91157104 9.43290009 -0.9406958 8.17424133 -0.97070312 6.87744141 C-1.00006958 5.76382233 -1.02943604 4.65020325 -1.05969238 3.50283813 C-1 1 -1 1 0 0 Z " fill="#633436" transform="translate(570,219)"/>
<path d="M0 0 C1.4540625 0.0309375 1.4540625 0.0309375 2.9375 0.0625 C2.9375 0.7225 2.9375 1.3825 2.9375 2.0625 C3.5975 1.4025 4.2575 0.7425 4.9375 0.0625 C9.39105865 0.34982636 13.08850832 0.6568802 16.9375 3.0625 C14.18023791 3.94482387 12.39466378 4.02372598 9.4375 3.8125 C5.85648626 3.694489 5.85648626 3.694489 3.74609375 6.15625 C0.49609478 11.37871055 1.36612358 17.11230413 1.9375 23.0625 C2.68955267 26.26839311 3.6734088 29.00761294 4.9375 32.0625 C4.2775 32.0625 3.6175 32.0625 2.9375 32.0625 C-0.96531671 24.25686658 -0.34141493 16.57457047 -0.0625 8.0625 C-0.7225 8.0625 -1.3825 8.0625 -2.0625 8.0625 C-2.7225 5.7525 -3.3825 3.4425 -4.0625 1.0625 C-3.0625 0.0625 -3.0625 0.0625 0 0 Z " fill="#503837" transform="translate(147.0625,225.9375)"/>
<path d="M0 0 C1.95753047 2.42647732 3.89379291 4.85712899 5.75390625 7.359375 C10.17774731 13.20687117 14.97064961 17.7146682 20.77734375 22.1875 C23 24 23 24 24 26 C23.01 26 22.02 26 21 26 C21 25.34 21 24.68 21 24 C20.01 24 19.02 24 18 24 C17.67 24.66 17.34 25.32 17 26 C17 25.34 17 24.68 17 24 C16.01 24.33 15.02 24.66 14 25 C11.8125 24.0625 11.8125 24.0625 10 23 C10.33 22.01 10.66 21.02 11 20 C10.13350534 18.01669827 10.13350534 18.01669827 9 16 C8.63215869 14.6757713 8.28797019 13.34386088 8 12 C7.34 12 6.68 12 6 12 C4.97388051 10.34928604 3.97691857 8.68029994 3 7 C2.1646875 6.2265625 2.1646875 6.2265625 1.3125 5.4375 C0 4 0 4 0 0 Z " fill="#423A37" transform="translate(152,258)"/>
<path d="M0 0 C1.47171666 21.97062725 1.09464182 43.99359355 1 66 C0.67 66 0.34 66 0 66 C-0.95733559 44.98699294 -1.12054257 24.03004153 -1 3 C-2.98 3.66 -4.96 4.32 -7 5 C-2.25 0 -2.25 0 0 0 Z " fill="#CC525D" transform="translate(569,218)"/>
<path d="M0 0 C1.32 0.66 2.64 1.32 4 2 C1.03 3.32 -1.94 4.64 -5 6 C-4.67 6.99 -4.34 7.98 -4 9 C-8.25320385 9.35443365 -9.67612238 8.49290822 -13 6 C-15.66761764 5.74875174 -15.66761764 5.74875174 -18 6 C-13.18629088 0.38400603 -7.08393433 -0.99175081 0 0 Z " fill="#4C4B4C" transform="translate(161,217)"/>
<path d="M0 0 C2 1 2 1 3.03515625 3.66015625 C3.54369141 5.34431641 3.54369141 5.34431641 4.0625 7.0625 C4.40410156 8.16722656 4.74570313 9.27195313 5.09765625 10.41015625 C7.21881601 18.84888275 7.18287669 27.15303189 7.1875 35.8125 C7.19974609 37.03904297 7.21199219 38.26558594 7.22460938 39.52929688 C7.22750977 41.28790039 7.22750977 41.28790039 7.23046875 43.08203125 C7.23457764 44.14655518 7.23868652 45.2110791 7.24291992 46.30786133 C7 49 7 49 5 52 C4.98541748 50.92105469 4.97083496 49.84210938 4.95581055 48.73046875 C4.89749062 44.69710459 4.82026207 40.66427919 4.73754883 36.63134766 C4.70445707 34.89152828 4.67637693 33.15160561 4.65356445 31.41162109 C4.61972645 28.89896959 4.56739974 26.38725134 4.51171875 23.875 C4.50532883 23.10696045 4.4989389 22.3389209 4.49235535 21.54760742 C4.34651352 16.09413962 3.063581 12.04675425 1 7 C0.52044627 4.6592982 0.24796251 2.38044008 0 0 Z " fill="#C3505B" transform="translate(216,223)"/>
<path d="M0 0 C0.886875 0.680625 1.77375 1.36125 2.6875 2.0625 C5.77798927 4.29824333 5.77798927 4.29824333 8.875 3.75 C9.57625 3.5025 10.2775 3.255 11 3 C13 6 13 6 13 8 C13.66 8.66 14.32 9.32 15 10 C14.01 10 13.02 10 12 10 C12.66 11.98 13.32 13.96 14 16 C8.13512553 12.54122788 3.69882819 7.88678132 -1 3 C-0.67 2.01 -0.34 1.02 0 0 Z " fill="#444545" transform="translate(151,273)"/>
<path d="M0 0 C3.40606555 1.13535518 4.48659411 2.64082259 6.6796875 5.37890625 C10.02109152 9.4815177 13.4467567 12.36391177 18 15 C19 16 20 17 21 18 C21.886875 18.515625 22.77375 19.03125 23.6875 19.5625 C24.450625 20.036875 25.21375 20.51125 26 21 C26 21.66 26 22.32 26 23 C27.32 23.33 28.64 23.66 30 24 C30 24.66 30 25.32 30 26 C31.32 26.66 32.64 27.32 34 28 C29.8949125 28 27.67922821 25.9071808 24.5 23.5625 C23.56994141 22.88296265 23.56994141 22.88296265 22.62109375 22.18969727 C20.73902995 20.80399398 18.86827874 19.40421594 17 18 C15.9584375 17.22398437 14.916875 16.44796875 13.84375 15.6484375 C7.95283774 11.06841505 3.65594739 6.52517193 0 0 Z " fill="#C9535F" transform="translate(157,264)"/>
<path d="M0 0 C3.42946293 1.61674681 6.56263052 3.57597677 9.75 5.625 C11.22726563 6.57246094 11.22726563 6.57246094 12.734375 7.5390625 C13.48203125 8.02117187 14.2296875 8.50328125 15 9 C11.91190305 10.76462683 10.76687864 11 7 11 C6.01 11.66 5.02 12.32 4 13 C2.89155081 9.67465243 3.15545644 7.37817425 4 4 C2.68 3.34 1.36 2.68 0 2 C0 1.34 0 0.68 0 0 Z " fill="#453A39" transform="translate(182,288)"/>
<path d="M0 0 C0.99 0.33 1.98 0.66 3 1 C-2.75 6 -2.75 6 -5 6 C-5.33 6.99 -5.66 7.98 -6 9 C-7.67270217 10.01674053 -9.35222935 11.02565063 -11.078125 11.94921875 C-13.84354732 13.46120778 -16.39840593 15.22330161 -19 17 C-19 16.01 -19 15.02 -19 14 C-18.34 14 -17.68 14 -17 14 C-17 13.34 -17 12.68 -17 12 C-15.02 11.34 -13.04 10.68 -11 10 C-11 9.34 -11 8.68 -11 8 C-10.01 8 -9.02 8 -8 8 C-7.79375 7.195625 -7.5875 6.39125 -7.375 5.5625 C-6.92125 4.716875 -6.4675 3.87125 -6 3 C-2.875 2.1875 -2.875 2.1875 0 2 C0 1.34 0 0.68 0 0 Z " fill="#603534" transform="translate(557,223)"/>
<path d="M0 0 C0.66 0.66 1.32 1.32 2 2 C2.99 2 3.98 2 5 2 C6.15941038 5.47823115 5.70820884 7.45895578 5 11 C3.02 11 1.04 11 -1 11 C-1.125 3.375 -1.125 3.375 0 0 Z " fill="#484946" transform="translate(178,214)"/>
<path d="M0 0 C1.32 0.33 2.64 0.66 4 1 C-0.62 4.3 -5.24 7.6 -10 11 C-10.33 10.34 -10.66 9.68 -11 9 C-10.34 9 -9.68 9 -9 9 C-9 7.02 -9 5.04 -9 3 C-6.04335481 1.5216774 -3.25770263 1.93967217 0 2 C0 1.34 0 0.68 0 0 Z " fill="#DC4F59" transform="translate(540,303)"/>
<path d="M0 0 C0.33 0 0.66 0 1 0 C1.5338079 9.33175289 -0.08718365 17.92550815 -2 27 C-2.33 27 -2.66 27 -3 27 C-3.02686553 25.02090602 -3.04633375 23.04171029 -3.0625 21.0625 C-3.07410156 19.96035156 -3.08570313 18.85820312 -3.09765625 17.72265625 C-3 15 -3 15 -2 14 C-1.79068103 11.83703727 -1.63202931 9.6690529 -1.5 7.5 C-1.11111111 1.11111111 -1.11111111 1.11111111 0 0 Z " fill="#D3525A" transform="translate(220,277)"/>
<path d="M0 0 C0.66 0.66 1.32 1.32 2 2 C1.360625 2.763125 0.72125 3.52625 0.0625 4.3125 C-2.14232781 6.88246713 -2.14232781 6.88246713 -3 10 C-5.64 9.67 -8.28 9.34 -11 9 C-7.67149253 5.40521193 -4.01028669 2.77635232 0 0 Z " fill="#434544" transform="translate(538,225)"/>
<path d="M0 0 C2.64 0.33 5.28 0.66 8 1 C8.33 2.65 8.66 4.3 9 6 C9.7425 6.12375 10.485 6.2475 11.25 6.375 C13.80141485 6.95486701 15.7267573 7.73708739 18 9 C18 9.66 18 10.32 18 11 C14.46191341 10.30576551 11.60453574 8.8895124 8.4375 7.1875 C7.48746094 6.68605469 6.53742188 6.18460937 5.55859375 5.66796875 C3.00938433 4.00611772 1.63442912 2.53694217 0 0 Z " fill="#DB505D" transform="translate(199,297)"/>
<path d="M0 0 C0.66 0.33 1.32 0.66 2 1 C0.71034824 2.37562854 -0.62689293 3.70766393 -2 5 C-2.66 5 -3.32 5 -4 5 C-4.20625 5.61875 -4.4125 6.2375 -4.625 6.875 C-6.54775888 9.84653645 -8.66594527 10.13024659 -12 11 C-12 11.66 -12 12.32 -12 13 C-13.32 12.67 -14.64 12.34 -16 12 C-10.72 8.04 -5.44 4.08 0 0 Z " fill="#5A3734" transform="translate(550,298)"/>
<path d="M0 0 C2.00800914 2.50552926 4.01126916 5.01428455 6 7.53515625 C6.66 8.36917969 7.32 9.20320313 8 10.0625 C8.99 11.31740234 8.99 11.31740234 10 12.59765625 C11.89204438 14.87032674 13.87493384 16.94608561 16 19 C12.66272214 17.82744291 10.22562513 16.81131596 8 14 C8 13.34 8 12.68 8 12 C7.34 12 6.68 12 6 12 C4.97388051 10.34928604 3.97691857 8.68029994 3 7 C2.1646875 6.2265625 2.1646875 6.2265625 1.3125 5.4375 C0 4 0 4 0 0 Z " fill="#693534" transform="translate(152,258)"/>
<path d="M0 0 C3.35595828 0.59927826 5.37801226 1.84622436 8 4 C7.67 4.99 7.34 5.98 7 7 C4.69 6.67 2.38 6.34 0 6 C0 4.02 0 2.04 0 0 Z " fill="#444243" transform="translate(165,219)"/>
<path d="M0 0 C4.13937592 3.30015998 7.58662205 6.17324411 10 11 C7 11 7 11 4 9 C4 8.01 4 7.02 4 6 C1.525 5.01 1.525 5.01 -1 4 C-0.67 2.68 -0.34 1.36 0 0 Z " fill="#474544" transform="translate(214,202)"/>
<path d="M0 0 C1.98 0.495 1.98 0.495 4 1 C3.67 2.65 3.34 4.3 3 6 C3.99 5.67 4.98 5.34 6 5 C6 7.97 6 10.94 6 14 C3.22137141 10.52671426 1.01536527 6.9587532 -1 3 C-0.67 2.01 -0.34 1.02 0 0 Z " fill="#454545" transform="translate(321,267)"/>
<path d="M0 0 C1.76462683 3.08809695 2 4.23312136 2 8 C1.0925 7.690625 0.185 7.38125 -0.75 7.0625 C-3.8128897 5.98404721 -3.8128897 5.98404721 -6.3125 5.5625 C-6.869375 5.376875 -7.42625 5.19125 -8 5 C-8.33 4.01 -8.66 3.02 -9 2 C-6.69 2.33 -4.38 2.66 -2 3 C-1.34 2.01 -0.68 1.02 0 0 Z " fill="#4B4B4B" transform="translate(390,230)"/>
<path d="M0 0 C1.65 0.33 3.3 0.66 5 1 C4.505 1.763125 4.01 2.52625 3.5 3.3125 C1.75631692 5.92363751 1.75631692 5.92363751 2 9 C1.7525 8.38125 1.505 7.7625 1.25 7.125 C-0.22246063 4.62181694 -1.41028837 4.16954719 -4 3 C-4.33 2.34 -4.66 1.68 -5 1 C-2.525 1.495 -2.525 1.495 0 2 C0 1.34 0 0.68 0 0 Z " fill="#533939" transform="translate(213,211)"/>
<path d="M0 0 C0.66 0.33 1.32 0.66 2 1 C-2.07106153 5.29723161 -6.68410615 9.34205308 -12 12 C-12.66 11.67 -13.32 11.34 -14 11 C-9.38 7.37 -4.76 3.74 0 0 Z " fill="#C4505B" transform="translate(541,237)"/>
<path d="M0 0 C0.33 0 0.66 0 1 0 C1 1.65 1 3.3 1 5 C1.66 5 2.32 5 3 5 C3.66 3.68 4.32 2.36 5 1 C5.6875 2.8125 5.6875 2.8125 6 5 C4.6875 6.75 4.6875 6.75 3 8 C2.34 8 1.68 8 1 8 C1 9.98 1 11.96 1 14 C0.67 14 0.34 14 0 14 C0 9.38 0 4.76 0 0 Z " fill="#DB5258" transform="translate(148,235)"/>
<path d="M0 0 C1.65 0 3.3 0 5 0 C6.0625 1.875 6.0625 1.875 7 4 C6.67 4.66 6.34 5.32 6 6 C1.25 5.25 1.25 5.25 -1 3 C-0.67 2.01 -0.34 1.02 0 0 Z " fill="#393939" transform="translate(571,201)"/>
<path d="M0 0 C0.33 0.66 0.66 1.32 1 2 C2.32 1.67 3.64 1.34 5 1 C1.83525695 4.25516428 -1.32752791 7.32008793 -5 10 C-5.66 10 -6.32 10 -7 10 C-7 9.34 -7 8.68 -7 8 C-6.34 8 -5.68 8 -5 8 C-5.33 7.01 -5.66 6.02 -6 5 C-4.35 4.67 -2.7 4.34 -1 4 C-0.67 2.68 -0.34 1.36 0 0 Z " fill="#503631" transform="translate(532,239)"/>
<path d="M0 0 C-0.1875 2.375 -0.1875 2.375 -1 5 C-3.4375 6.25 -3.4375 6.25 -6 7 C-6.99 7.495 -6.99 7.495 -8 8 C-8.66 7.34 -9.32 6.68 -10 6 C-8.71283353 4.99421411 -7.42011342 3.99553202 -6.125 3 C-5.40570312 2.443125 -4.68640625 1.88625 -3.9453125 1.3125 C-2 0 -2 0 0 0 Z " fill="#D15059" transform="translate(562,223)"/>
<path d="M0 0 C-1.32 0.33 -2.64 0.66 -4 1 C-4 1.99 -4 2.98 -4 4 C-4.66 4 -5.32 4 -6 4 C-6.33 4.99 -6.66 5.98 -7 7 C-8.5625 8.6875 -8.5625 8.6875 -10 10 C-9.51470588 3.56985294 -9.51470588 3.56985294 -7.25 1.0625 C-4.64597372 -0.16717908 -2.84687774 -0.23723981 0 0 Z " fill="#5C5C5C" transform="translate(424,382)"/>
<path d="M0 0 C0.99 0.33 1.98 0.66 3 1 C1.73299277 1.9841125 0.4612381 2.96211497 -0.8125 3.9375 C-1.87404297 4.75541016 -1.87404297 4.75541016 -2.95703125 5.58984375 C-5 7 -5 7 -8 8 C-7.375 5.5625 -7.375 5.5625 -6 3 C-2.875 2.1875 -2.875 2.1875 0 2 C0 1.34 0 0.68 0 0 Z " fill="#4F3636" transform="translate(557,223)"/>
<path d="M0 0 C1.98 0 3.96 0 6 0 C5.01 0.495 5.01 0.495 4 1 C4 1.66 4 2.32 4 3 C6.31 3.66 8.62 4.32 11 5 C11 5.66 11 6.32 11 7 C7.98342209 6.85969405 5.76158727 6.70648535 3.48828125 4.59765625 C2.26743934 3.11095765 1.12753478 1.55865102 0 0 Z " fill="#613534" transform="translate(176,240)"/>
<path d="M0 0 C0.99 0.33 1.98 0.66 3 1 C2.34 2.65 1.68 4.3 1 6 C-0.32 5.67 -1.64 5.34 -3 5 C-3.33 5.99 -3.66 6.98 -4 8 C-4.33 6.68 -4.66 5.36 -5 4 C-2.6875 1.9375 -2.6875 1.9375 0 0 Z " fill="#454544" transform="translate(547,218)"/>
<path d="M0 0 C0.33 0 0.66 0 1 0 C1 4.95 1 9.9 1 15 C1.99 15.33 2.98 15.66 4 16 C2.68 16.99 1.36 17.98 0 19 C0 12.73 0 6.46 0 0 Z " fill="#D25968" transform="translate(517,304)"/>
<path d="M0 0 C1.98 1.65 3.96 3.3 6 5 C5.67 5.99 5.34 6.98 5 8 C3.02 6.35 1.04 4.7 -1 3 C-0.67 2.01 -0.34 1.02 0 0 Z " fill="#4B4B4B" transform="translate(151,273)"/>
<path d="M0 0 C0.66666667 2 1.33333333 4 2 6 C1.01 6.66 0.02 7.32 -1 8 C-3 5 -3 5 -2.75 2.875 C-2 1 -2 1 0 0 Z " fill="#434343" transform="translate(403,365)"/>
<path d="M0 0 C0.66 0 1.32 0 2 0 C1.875 1.75 1.875 1.75 1 4 C-2.0625 6.25 -2.0625 6.25 -5 8 C-5.33 6.68 -5.66 5.36 -6 4 C-4.35 3.67 -2.7 3.34 -1 3 C-0.67 2.01 -0.34 1.02 0 0 Z " fill="#454846" transform="translate(576,290)"/>
<path d="M0 0 C0.33 0.66 0.66 1.32 1 2 C0.21625 2.268125 -0.5675 2.53625 -1.375 2.8125 C-4.28114923 3.84814432 -4.28114923 3.84814432 -6 7 C-7.32 6.67 -8.64 6.34 -10 6 C-8.89932004 5.18278283 -7.79430269 4.37140549 -6.6875 3.5625 C-6.07261719 3.11003906 -5.45773437 2.65757812 -4.82421875 2.19140625 C-3 1 -3 1 0 0 Z " fill="#5B3434" transform="translate(570,285)"/>
<path d="M0 0 C0.66 0.66 1.32 1.32 2 2 C0.8141763 5.37503669 -0.27573689 7.64722731 -3 10 C-3.66 9.67 -4.32 9.34 -5 9 C-3.35 6.03 -1.7 3.06 0 0 Z " fill="#4C4C4C" transform="translate(685,215)"/>
<path d="M0 0 C0.66 0 1.32 0 2 0 C2.33 0.99 2.66 1.98 3 3 C-1.75 6 -1.75 6 -4 6 C-2.84826645 3.53199953 -1.95216435 1.95216435 0 0 Z " fill="#4A4A4A" transform="translate(210,458)"/>
<path d="M0 0 C3.5786304 1.65167557 6.74820188 3.78286492 10 6 C8.68 6.33 7.36 6.66 6 7 C5.67 6.34 5.34 5.68 5 5 C4.154375 4.505 3.30875 4.01 2.4375 3.5 C1.633125 3.005 0.82875 2.51 0 2 C0 1.34 0 0.68 0 0 Z " fill="#5C3234" transform="translate(182,288)"/>
<path d="M0 0 C1.65 0 3.3 0 5 0 C0.375 4.875 0.375 4.875 -3 6 C-2.67 4.68 -2.34 3.36 -2 2 C-1.34 2.33 -0.68 2.66 0 3 C0 2.01 0 1.02 0 0 Z " fill="#D5505D" transform="translate(556,290)"/>
<path d="M0 0 C0.66 0 1.32 0 2 0 C2.66 1.65 3.32 3.3 4 5 C2.35 5.33 0.7 5.66 -1 6 C-1.33 5.34 -1.66 4.68 -2 4 C-1.0625 1.875 -1.0625 1.875 0 0 Z " fill="#9F9F9F" transform="translate(372,242)"/>
<path d="M0 0 C0 0.66 0 1.32 0 2 C-0.66 2 -1.32 2 -2 2 C-2 2.99 -2 3.98 -2 5 C-3.98 5.66 -5.96 6.32 -8 7 C-4.13157895 0 -4.13157895 0 0 0 Z " fill="#583435" transform="translate(528,316)"/>
<path d="M0 0 C0.99 0.33 1.98 0.66 3 1 C-1.625 5.875 -1.625 5.875 -5 7 C-5 6.34 -5 5.68 -5 5 C-4.34 5 -3.68 5 -3 5 C-3 4.01 -3 3.02 -3 2 C-2.01 1.34 -1.02 0.68 0 0 Z " fill="#4D3931" transform="translate(522,248)"/>
<path d="M0 0 C1.32 0.33 2.64 0.66 4 1 C-1.75 6 -1.75 6 -4 6 C-4 5.01 -4 4.02 -4 3 C-3.01 2.67 -2.02 2.34 -1 2 C-0.67 1.34 -0.34 0.68 0 0 Z " fill="#533731" transform="translate(564,217)"/>
<path d="M0 0 C0.99 0.33 1.98 0.66 3 1 C0.525 5.455 0.525 5.455 -2 10 C-2.33 10 -2.66 10 -3 10 C-3.36629408 5.72656908 -2.40814077 3.51187196 0 0 Z " fill="#593438" transform="translate(192,208)"/>
<path d="M0 0 C0.99 0.33 1.98 0.66 3 1 C2.6875 2.875 2.6875 2.875 2 5 C1.01 5.66 0.02 6.32 -1 7 C-1.66 6.34 -2.32 5.68 -3 5 C-2.505 4.360625 -2.01 3.72125 -1.5 3.0625 C0.09802862 1.29025661 0.09802862 1.29025661 0 0 Z " fill="#464646" transform="translate(541,314)"/>
<path d="M0 0 C4.24223102 -0.3636198 6.58168085 0.4606772 10 3 C10 3.66 10 4.32 10 5 C6.33118845 4.29445932 3.29549466 2.72264494 0 1 C0 0.67 0 0.34 0 0 Z " fill="#C4535E" transform="translate(207,303)"/>
<path d="M0 0 C1.89213369 2.38573379 3.02391783 4.07175348 4 7 C3.01 7.495 3.01 7.495 2 8 C1.01 7.34 0.02 6.68 -1 6 C-0.67 4.02 -0.34 2.04 0 0 Z " fill="#4B4B4B" transform="translate(386,241)"/>
<path d="M0 0 C0 2.64 0 5.28 0 8 C-0.33 8 -0.66 8 -1 8 C-1 6.35 -1 4.7 -1 3 C-2.98 3.66 -4.96 4.32 -7 5 C-2.25 0 -2.25 0 0 0 Z " fill="#C55762" transform="translate(569,218)"/>
<path d="M0 0 C-0.33 0.99 -0.66 1.98 -1 3 C-3.31 3.33 -5.62 3.66 -8 4 C-7.67 3.01 -7.34 2.02 -7 1 C-4.53721199 -0.231394 -2.7204945 -0.07159196 0 0 Z " fill="#545454" transform="translate(373,114)"/>
<path d="M0 0 C0.99 0.33 1.98 0.66 3 1 C2.67 1.99 2.34 2.98 2 4 C1.65772583 5.33106622 1.32248257 6.66400079 1 8 C0.01 7.34 -0.98 6.68 -2 6 C-1.34 4.02 -0.68 2.04 0 0 Z " fill="#4C4C4C" transform="translate(498,108)"/>
<path d="M0 0 C1.32 0.33 2.64 0.66 4 1 C1.69 2.65 -0.62 4.3 -3 6 C-3 5.01 -3 4.02 -3 3 C-2.34 3 -1.68 3 -1 3 C-0.67 2.01 -0.34 1.02 0 0 Z " fill="#D25460" transform="translate(565,284)"/>
<path d="M0 0 C0.66 0.33 1.32 0.66 2 1 C1.6875 2.9375 1.6875 2.9375 1 5 C0.01 5.33 -0.98 5.66 -2 6 C-2.33 4.68 -2.66 3.36 -3 2 C-2.01 1.34 -1.02 0.68 0 0 Z " fill="#474747" transform="translate(363,233)"/>
<path d="M0 0 C2.475 0.99 2.475 0.99 5 2 C5 2.99 5 3.98 5 5 C3.02 4.34 1.04 3.68 -1 3 C-0.67 2.01 -0.34 1.02 0 0 Z " fill="#4A4A4A" transform="translate(675,164)"/>
<path d="M0 0 C0.33 1.32 0.66 2.64 1 4 C-0.9375 6.25 -0.9375 6.25 -3 8 C-3.66 7.67 -4.32 7.34 -5 7 C-3.35 4.69 -1.7 2.38 0 0 Z " fill="#535353" transform="translate(361,122)"/>
<path d="M0 0 C4.1424367 1.38081223 5.32203099 3.59825558 8 7 C7.01 7 6.02 7 5 7 C0 1.53488372 0 1.53488372 0 0 Z " fill="#D65761" transform="translate(157,264)"/>
<path d="M0 0 C2.64 0.33 5.28 0.66 8 1 C7.67 1.99 7.34 2.98 7 4 C5.35 4 3.7 4 2 4 C1.34 2.68 0.68 1.36 0 0 Z " fill="#D6535F" transform="translate(180,245)"/>
<path d="M0 0 C0.98120464 3.05263664 0.98120464 4.94736336 0 8 C-1.32 7.67 -2.64 7.34 -4 7 C-3.34 6.67 -2.68 6.34 -2 6 C-1.27306096 4.02111039 -0.60183749 2.02045442 0 0 Z " fill="#373F37" transform="translate(188,236)"/>
<path d="M0 0 C1.31223496 3.93670488 0.24296256 6.12488144 -1 10 C-1.99 9.67 -2.98 9.34 -4 9 C-2.80100302 5.9168649 -1.52299523 2.93720508 0 0 Z " fill="#4B4B4B" transform="translate(495,114)"/>
</svg>
